<svg xmlns="http://www.w3.org/2000/svg" xmlns:xlink="http://www.w3.org/1999/xlink" width="500" zoomAndPan="magnify" viewBox="0 0 375 374.999991" height="500" preserveAspectRatio="xMidYMid meet" version="1.2"><defs><clipPath id="ccb44af24f"><path d="M 83.449219 114 L 291.199219 114 L 291.199219 261 L 83.449219 261 Z M 83.449219 114 "/></clipPath></defs><g id="c3968aea5b"><g clip-rule="nonzero" clip-path="url(#ccb44af24f)"><path style=" stroke:none;fill-rule:nonzero;fill:#ffffff;fill-opacity:1;" d="M 170.066406 130.324219 C 171.761719 128.535156 173.625 126.9375 175.648438 125.53125 C 177.671875 124.121094 179.816406 122.929688 182.082031 121.960938 C 184.347656 120.988281 186.6875 120.253906 189.101562 119.757812 C 191.519531 119.265625 193.957031 119.015625 196.421875 119.019531 C 209.925781 119.019531 221.992188 126.808594 228.363281 138.105469 C 233.820312 135.507812 240.050781 134.210938 246.542969 134.210938 C 271.214844 134.210938 291.199219 154.464844 291.199219 179.398438 C 291.199219 204.328125 271.203125 224.582031 246.394531 224.582031 C 243.410156 224.582031 240.421875 224.203125 237.566406 223.683594 C 236.867188 224.957031 236.089844 226.179688 235.226562 227.351562 C 234.367188 228.519531 233.429688 229.628906 232.417969 230.671875 C 231.410156 231.714844 230.332031 232.6875 229.191406 233.589844 C 228.050781 234.488281 226.855469 235.308594 225.601562 236.046875 C 224.351562 236.785156 223.058594 237.4375 221.71875 238.003906 C 220.378906 238.570312 219.007812 239.042969 217.605469 239.425781 C 216.203125 239.804688 214.78125 240.089844 213.34375 240.28125 C 211.902344 240.472656 210.453125 240.566406 209 240.5625 C 203.808594 240.5625 199.003906 239.261719 194.71875 237.316406 C 194.003906 238.992188 193.171875 240.609375 192.222656 242.164062 C 191.269531 243.722656 190.210938 245.199219 189.046875 246.597656 C 187.878906 248 186.617188 249.308594 185.257812 250.523438 C 183.898438 251.738281 182.460938 252.847656 180.9375 253.855469 C 179.417969 254.859375 177.832031 255.746094 176.179688 256.519531 C 174.527344 257.292969 172.828125 257.941406 171.082031 258.464844 C 169.335938 258.988281 167.5625 259.382812 165.757812 259.644531 C 163.953125 259.910156 162.140625 260.039062 160.316406 260.039062 C 158.417969 260.042969 156.53125 259.902344 154.652344 259.621094 C 152.773438 259.335938 150.929688 258.910156 149.117188 258.34375 C 147.300781 257.777344 145.542969 257.078125 143.835938 256.242188 C 142.132812 255.40625 140.5 254.445312 138.941406 253.359375 C 137.382812 252.273438 135.914062 251.078125 134.539062 249.765625 C 133.164062 248.457031 131.894531 247.050781 130.734375 245.546875 C 129.574219 244.042969 128.535156 242.460938 127.617188 240.796875 C 126.699219 239.132812 125.914062 237.410156 125.261719 235.628906 C 122.921875 236.164062 120.585938 236.285156 118.117188 236.285156 C 99.039062 236.285156 83.449219 220.703125 83.449219 201.226562 C 83.449219 188.242188 90.472656 176.945312 100.851562 170.84375 C 98.640625 165.910156 97.472656 160.457031 97.472656 154.863281 C 97.472656 132.53125 115.652344 114.613281 137.726562 114.613281 C 150.96875 114.613281 162.394531 120.714844 169.925781 130.195312 "/></g><g style="fill:#000000;fill-opacity:1;"><g transform="translate(107.371796, 196.906234)"><path style="stroke:none" d="M 3.84375 -5.34375 C 4.644531 -4.34375 5.488281 -3.566406 6.375 -3.015625 C 7.257812 -2.460938 8.367188 -2.1875 9.703125 -2.1875 C 10.390625 -2.1875 11.050781 -2.28125 11.6875 -2.46875 C 12.320312 -2.664062 12.835938 -2.953125 13.234375 -3.328125 C 13.640625 -3.703125 13.84375 -4.171875 13.84375 -4.734375 C 13.84375 -5.578125 13.421875 -6.191406 12.578125 -6.578125 C 11.742188 -6.972656 10.578125 -7.285156 9.078125 -7.515625 C 7.191406 -7.835938 5.691406 -8.40625 4.578125 -9.21875 C 3.460938 -10.03125 2.90625 -11.222656 2.90625 -12.796875 C 2.90625 -13.828125 3.210938 -14.71875 3.828125 -15.46875 C 4.453125 -16.226562 5.273438 -16.804688 6.296875 -17.203125 C 7.316406 -17.609375 8.4375 -17.8125 9.65625 -17.8125 C 11.195312 -17.8125 12.53125 -17.539062 13.65625 -17 C 14.78125 -16.46875 15.660156 -15.707031 16.296875 -14.71875 L 14.4375 -12.796875 C 13.90625 -13.554688 13.234375 -14.175781 12.421875 -14.65625 C 11.609375 -15.132812 10.660156 -15.375 9.578125 -15.375 C 8.492188 -15.375 7.578125 -15.160156 6.828125 -14.734375 C 6.085938 -14.304688 5.71875 -13.707031 5.71875 -12.9375 C 5.71875 -12.050781 6.109375 -11.414062 6.890625 -11.03125 C 7.679688 -10.644531 8.726562 -10.34375 10.03125 -10.125 C 10.882812 -10 11.703125 -9.816406 12.484375 -9.578125 C 13.273438 -9.347656 13.984375 -9.039062 14.609375 -8.65625 C 15.234375 -8.28125 15.726562 -7.820312 16.09375 -7.28125 C 16.46875 -6.738281 16.65625 -6.078125 16.65625 -5.296875 C 16.65625 -4.171875 16.363281 -3.191406 15.78125 -2.359375 C 15.207031 -1.535156 14.382812 -0.894531 13.3125 -0.4375 C 12.25 0.0195312 10.988281 0.25 9.53125 0.25 C 7.988281 0.25 6.585938 -0.015625 5.328125 -0.546875 C 4.078125 -1.085938 2.976562 -1.957031 2.03125 -3.15625 Z M 3.84375 -5.34375 "/></g></g><g style="fill:#000000;fill-opacity:1;"><g transform="translate(126.134097, 196.906234)"><path style="stroke:none" d="M 16.296875 -13.171875 L 16.296875 0 L 13.71875 0 L 13.71875 -2.15625 C 13.414062 -1.757812 13.003906 -1.375 12.484375 -1 C 11.972656 -0.632812 11.378906 -0.332031 10.703125 -0.09375 C 10.023438 0.132812 9.289062 0.25 8.5 0.25 C 7.195312 0.25 6.039062 -0.0390625 5.03125 -0.625 C 4.019531 -1.207031 3.222656 -2.015625 2.640625 -3.046875 C 2.066406 -4.085938 1.78125 -5.28125 1.78125 -6.625 C 1.78125 -7.957031 2.082031 -9.132812 2.6875 -10.15625 C 3.289062 -11.175781 4.117188 -11.976562 5.171875 -12.5625 C 6.234375 -13.144531 7.453125 -13.4375 8.828125 -13.4375 C 9.910156 -13.4375 10.875 -13.226562 11.71875 -12.8125 C 12.5625 -12.394531 13.226562 -11.910156 13.71875 -11.359375 L 13.71875 -13.171875 Z M 9.109375 -2.125 C 10.023438 -2.125 10.835938 -2.320312 11.546875 -2.71875 C 12.253906 -3.113281 12.804688 -3.644531 13.203125 -4.3125 C 13.609375 -4.976562 13.8125 -5.75 13.8125 -6.625 C 13.8125 -7.457031 13.609375 -8.207031 13.203125 -8.875 C 12.804688 -9.539062 12.253906 -10.070312 11.546875 -10.46875 C 10.835938 -10.863281 10.023438 -11.0625 9.109375 -11.0625 C 8.179688 -11.0625 7.363281 -10.863281 6.65625 -10.46875 C 5.945312 -10.070312 5.394531 -9.539062 5 -8.875 C 4.601562 -8.207031 4.40625 -7.457031 4.40625 -6.625 C 4.40625 -5.75 4.601562 -4.976562 5 -4.3125 C 5.394531 -3.644531 5.945312 -3.113281 6.65625 -2.71875 C 7.363281 -2.320312 8.179688 -2.125 9.109375 -2.125 Z M 9.109375 -2.125 "/></g></g><g style="fill:#000000;fill-opacity:1;"><g transform="translate(145.523482, 196.906234)"><path style="stroke:none" d="M 3.1875 0 L 3.1875 -18.5625 L 5.765625 -18.5625 L 5.765625 0 Z M 3.1875 0 "/></g></g><g style="fill:#000000;fill-opacity:1;"><g transform="translate(154.277554, 196.906234)"><path style="stroke:none" d="M 15.515625 -1.734375 L 15.5 -1.734375 C 15.082031 -1.398438 14.554688 -1.078125 13.921875 -0.765625 C 13.296875 -0.453125 12.609375 -0.203125 11.859375 -0.015625 C 11.109375 0.160156 10.34375 0.25 9.5625 0.25 C 8.03125 0.25 6.679688 -0.0351562 5.515625 -0.609375 C 4.347656 -1.191406 3.4375 -1.988281 2.78125 -3 C 2.132812 -4.007812 1.8125 -5.15625 1.8125 -6.4375 C 1.8125 -7.914062 2.148438 -9.175781 2.828125 -10.21875 C 3.515625 -11.257812 4.429688 -12.0625 5.578125 -12.625 C 6.722656 -13.1875 7.972656 -13.46875 9.328125 -13.46875 C 10.578125 -13.46875 11.710938 -13.195312 12.734375 -12.65625 C 13.753906 -12.113281 14.566406 -11.363281 15.171875 -10.40625 C 15.785156 -9.457031 16.09375 -8.347656 16.09375 -7.078125 L 16.078125 -5.875 L 4.40625 -5.875 C 4.613281 -4.71875 5.207031 -3.800781 6.1875 -3.125 C 7.175781 -2.457031 8.414062 -2.125 9.90625 -2.125 C 10.988281 -2.125 11.878906 -2.296875 12.578125 -2.640625 C 13.273438 -2.984375 13.847656 -3.316406 14.296875 -3.640625 Z M 9.328125 -11.078125 C 8.140625 -11.078125 7.101562 -10.835938 6.21875 -10.359375 C 5.332031 -9.890625 4.753906 -9.078125 4.484375 -7.921875 L 13.46875 -7.921875 L 13.46875 -8.203125 C 13.394531 -8.765625 13.15625 -9.265625 12.75 -9.703125 C 12.351562 -10.140625 11.847656 -10.476562 11.234375 -10.71875 C 10.628906 -10.957031 9.992188 -11.078125 9.328125 -11.078125 Z M 9.328125 -11.078125 "/></g></g><g style="fill:#000000;fill-opacity:1;"><g transform="translate(172.43786, 196.906234)"><path style="stroke:none" d="M 11.859375 -9.65625 C 11.296875 -10.125 10.628906 -10.515625 9.859375 -10.828125 C 9.085938 -11.148438 8.367188 -11.3125 7.703125 -11.3125 C 7.265625 -11.3125 6.816406 -11.269531 6.359375 -11.1875 C 5.898438 -11.101562 5.507812 -10.945312 5.1875 -10.71875 C 4.875 -10.488281 4.71875 -10.160156 4.71875 -9.734375 C 4.71875 -9.328125 4.875 -9.003906 5.1875 -8.765625 C 5.507812 -8.523438 5.929688 -8.328125 6.453125 -8.171875 C 6.984375 -8.023438 7.566406 -7.882812 8.203125 -7.75 C 8.835938 -7.613281 9.457031 -7.457031 10.0625 -7.28125 C 10.675781 -7.101562 11.226562 -6.867188 11.71875 -6.578125 C 12.21875 -6.285156 12.613281 -5.914062 12.90625 -5.46875 C 13.207031 -5.03125 13.359375 -4.476562 13.359375 -3.8125 C 13.359375 -2.9375 13.101562 -2.195312 12.59375 -1.59375 C 12.09375 -1 11.425781 -0.539062 10.59375 -0.21875 C 9.769531 0.09375 8.875 0.25 7.90625 0.25 C 6.71875 0.25 5.585938 0.0703125 4.515625 -0.28125 C 3.441406 -0.644531 2.539062 -1.257812 1.8125 -2.125 L 3.5625 -3.6875 C 4.09375 -3.132812 4.710938 -2.691406 5.421875 -2.359375 C 6.140625 -2.035156 6.972656 -1.875 7.921875 -1.875 C 8.335938 -1.875 8.769531 -1.925781 9.21875 -2.03125 C 9.675781 -2.132812 10.0625 -2.304688 10.375 -2.546875 C 10.695312 -2.785156 10.859375 -3.125 10.859375 -3.5625 C 10.859375 -3.945312 10.695312 -4.253906 10.375 -4.484375 C 10.0625 -4.722656 9.632812 -4.910156 9.09375 -5.046875 C 8.5625 -5.191406 7.988281 -5.320312 7.375 -5.4375 C 6.46875 -5.644531 5.613281 -5.882812 4.8125 -6.15625 C 4.007812 -6.4375 3.359375 -6.847656 2.859375 -7.390625 C 2.367188 -7.929688 2.125 -8.6875 2.125 -9.65625 C 2.125 -10.425781 2.367188 -11.09375 2.859375 -11.65625 C 3.359375 -12.226562 4.023438 -12.664062 4.859375 -12.96875 C 5.703125 -13.28125 6.625 -13.4375 7.625 -13.4375 C 8.257812 -13.4375 8.925781 -13.363281 9.625 -13.21875 C 10.332031 -13.082031 11.003906 -12.859375 11.640625 -12.546875 C 12.285156 -12.242188 12.835938 -11.835938 13.296875 -11.328125 Z M 11.859375 -9.65625 "/></g></g><g style="fill:#000000;fill-opacity:1;"><g transform="translate(187.638335, 196.906234)"><path style="stroke:none" d="M 11.359375 -10.453125 L 7.140625 -10.453125 L 7.140625 0 L 4.640625 0 L 4.640625 -10.453125 L 2.125 -10.453125 L 2.125 -12.84375 L 4.640625 -12.84375 L 4.640625 -14.046875 C 4.640625 -14.929688 4.832031 -15.707031 5.21875 -16.375 C 5.601562 -17.039062 6.132812 -17.566406 6.8125 -17.953125 C 7.488281 -18.335938 8.269531 -18.53125 9.15625 -18.53125 C 9.925781 -18.53125 10.566406 -18.40625 11.078125 -18.15625 C 11.585938 -17.90625 11.957031 -17.660156 12.1875 -17.421875 L 11.3125 -15.34375 C 11.09375 -15.53125 10.8125 -15.707031 10.46875 -15.875 C 10.125 -16.039062 9.785156 -16.125 9.453125 -16.125 C 8.585938 -16.125 7.984375 -15.914062 7.640625 -15.5 C 7.304688 -15.082031 7.140625 -14.597656 7.140625 -14.046875 L 7.140625 -12.84375 L 11.359375 -12.84375 Z M 11.359375 -10.453125 "/></g></g><g style="fill:#000000;fill-opacity:1;"><g transform="translate(200.380645, 196.906234)"><path style="stroke:none" d="M 16.921875 -6.59375 C 16.921875 -5.257812 16.59375 -4.078125 15.9375 -3.046875 C 15.289062 -2.015625 14.40625 -1.207031 13.28125 -0.625 C 12.15625 -0.0390625 10.867188 0.25 9.421875 0.25 C 7.984375 0.25 6.695312 -0.0390625 5.5625 -0.625 C 4.425781 -1.207031 3.53125 -2.015625 2.875 -3.046875 C 2.226562 -4.078125 1.90625 -5.257812 1.90625 -6.59375 C 1.90625 -7.9375 2.226562 -9.117188 2.875 -10.140625 C 3.53125 -11.171875 4.425781 -11.976562 5.5625 -12.5625 C 6.695312 -13.144531 7.984375 -13.4375 9.421875 -13.4375 C 10.867188 -13.4375 12.15625 -13.144531 13.28125 -12.5625 C 14.40625 -11.976562 15.289062 -11.171875 15.9375 -10.140625 C 16.59375 -9.117188 16.921875 -7.9375 16.921875 -6.59375 Z M 14.296875 -6.59375 C 14.304688 -7.476562 14.097656 -8.257812 13.671875 -8.9375 C 13.253906 -9.613281 12.671875 -10.140625 11.921875 -10.515625 C 11.179688 -10.890625 10.347656 -11.078125 9.421875 -11.078125 C 8.503906 -11.078125 7.671875 -10.890625 6.921875 -10.515625 C 6.179688 -10.140625 5.59375 -9.613281 5.15625 -8.9375 C 4.726562 -8.257812 4.523438 -7.476562 4.546875 -6.59375 C 4.523438 -5.726562 4.726562 -4.957031 5.15625 -4.28125 C 5.59375 -3.601562 6.179688 -3.070312 6.921875 -2.6875 C 7.671875 -2.300781 8.503906 -2.109375 9.421875 -2.109375 C 10.347656 -2.109375 11.179688 -2.300781 11.921875 -2.6875 C 12.671875 -3.070312 13.253906 -3.601562 13.671875 -4.28125 C 14.097656 -4.957031 14.304688 -5.726562 14.296875 -6.59375 Z M 14.296875 -6.59375 "/></g></g><g style="fill:#000000;fill-opacity:1;"><g transform="translate(219.218203, 196.906234)"><path style="stroke:none" d="M 11.859375 -10.234375 C 11.609375 -10.367188 11.300781 -10.476562 10.9375 -10.5625 C 10.582031 -10.65625 10.226562 -10.703125 9.875 -10.703125 C 9.15625 -10.703125 8.492188 -10.53125 7.890625 -10.1875 C 7.296875 -9.851562 6.8125 -9.40625 6.4375 -8.84375 C 6.070312 -8.28125 5.890625 -7.65625 5.890625 -6.96875 L 5.890625 0 L 3.28125 0 L 3.28125 -13.171875 L 5.890625 -13.171875 L 5.890625 -10.53125 C 6.359375 -11.363281 7.003906 -12.054688 7.828125 -12.609375 C 8.660156 -13.160156 9.519531 -13.4375 10.40625 -13.4375 C 10.820312 -13.4375 11.226562 -13.394531 11.625 -13.3125 C 12.019531 -13.226562 12.320312 -13.117188 12.53125 -12.984375 Z M 11.859375 -10.234375 "/></g></g><g style="fill:#000000;fill-opacity:1;"><g transform="translate(232.562507, 196.906234)"><path style="stroke:none" d="M 4.46875 -6.59375 C 4.46875 -5.726562 4.679688 -4.957031 5.109375 -4.28125 C 5.535156 -3.601562 6.109375 -3.066406 6.828125 -2.671875 C 7.546875 -2.273438 8.328125 -2.078125 9.171875 -2.078125 C 10.234375 -2.078125 11.140625 -2.285156 11.890625 -2.703125 C 12.640625 -3.117188 13.265625 -3.554688 13.765625 -4.015625 L 15.203125 -2.15625 C 14.523438 -1.519531 13.648438 -0.957031 12.578125 -0.46875 C 11.515625 0.0078125 10.320312 0.25 9 0.25 C 7.664062 0.25 6.457031 -0.0507812 5.375 -0.65625 C 4.300781 -1.257812 3.453125 -2.078125 2.828125 -3.109375 C 2.210938 -4.148438 1.90625 -5.3125 1.90625 -6.59375 C 1.90625 -7.894531 2.210938 -9.0625 2.828125 -10.09375 C 3.453125 -11.125 4.300781 -11.9375 5.375 -12.53125 C 6.457031 -13.132812 7.664062 -13.4375 9 -13.4375 C 10.351562 -13.4375 11.578125 -13.195312 12.671875 -12.71875 C 13.765625 -12.25 14.609375 -11.617188 15.203125 -10.828125 L 13.765625 -8.921875 C 13.410156 -9.328125 12.976562 -9.691406 12.46875 -10.015625 C 11.96875 -10.335938 11.425781 -10.597656 10.84375 -10.796875 C 10.269531 -11.003906 9.707031 -11.109375 9.15625 -11.109375 C 8.25 -11.109375 7.441406 -10.910156 6.734375 -10.515625 C 6.023438 -10.128906 5.46875 -9.597656 5.0625 -8.921875 C 4.664062 -8.242188 4.46875 -7.46875 4.46875 -6.59375 Z M 4.46875 -6.59375 "/></g></g><g style="fill:#000000;fill-opacity:1;"><g transform="translate(249.44356, 196.906234)"><path style="stroke:none" d="M 15.515625 -1.734375 L 15.5 -1.734375 C 15.082031 -1.398438 14.554688 -1.078125 13.921875 -0.765625 C 13.296875 -0.453125 12.609375 -0.203125 11.859375 -0.015625 C 11.109375 0.160156 10.34375 0.25 9.5625 0.25 C 8.03125 0.25 6.679688 -0.0351562 5.515625 -0.609375 C 4.347656 -1.191406 3.4375 -1.988281 2.78125 -3 C 2.132812 -4.007812 1.8125 -5.15625 1.8125 -6.4375 C 1.8125 -7.914062 2.148438 -9.175781 2.828125 -10.21875 C 3.515625 -11.257812 4.429688 -12.0625 5.578125 -12.625 C 6.722656 -13.1875 7.972656 -13.46875 9.328125 -13.46875 C 10.578125 -13.46875 11.710938 -13.195312 12.734375 -12.65625 C 13.753906 -12.113281 14.566406 -11.363281 15.171875 -10.40625 C 15.785156 -9.457031 16.09375 -8.347656 16.09375 -7.078125 L 16.078125 -5.875 L 4.40625 -5.875 C 4.613281 -4.71875 5.207031 -3.800781 6.1875 -3.125 C 7.175781 -2.457031 8.414062 -2.125 9.90625 -2.125 C 10.988281 -2.125 11.878906 -2.296875 12.578125 -2.640625 C 13.273438 -2.984375 13.847656 -3.316406 14.296875 -3.640625 Z M 9.328125 -11.078125 C 8.140625 -11.078125 7.101562 -10.835938 6.21875 -10.359375 C 5.332031 -9.890625 4.753906 -9.078125 4.484375 -7.921875 L 13.46875 -7.921875 L 13.46875 -8.203125 C 13.394531 -8.765625 13.15625 -9.265625 12.75 -9.703125 C 12.351562 -10.140625 11.847656 -10.476562 11.234375 -10.71875 C 10.628906 -10.957031 9.992188 -11.078125 9.328125 -11.078125 Z M 9.328125 -11.078125 "/></g></g></g></svg>