<svg xmlns="http://www.w3.org/2000/svg" xmlns:xlink="http://www.w3.org/1999/xlink" width="500" zoomAndPan="magnify" viewBox="0 0 375 374.999991" height="500" preserveAspectRatio="xMidYMid meet" version="1.2"><defs><clipPath id="b3c96f6271"><path d="M 281 152.679688 L 283 152.679688 L 283 221 L 281 221 Z M 281 152.679688 "/></clipPath><clipPath id="c02f9bd508"><path d="M 281 152.679688 L 283 152.679688 L 283 221 L 281 221 Z M 281 152.679688 "/></clipPath><clipPath id="ad130c7acb"><path d="M 281 152.679688 L 317 152.679688 L 317 188 L 281 188 Z M 281 152.679688 "/></clipPath><clipPath id="e184ea6f31"><path d="M 248 152.679688 L 283 152.679688 L 283 188 L 248 188 Z M 248 152.679688 "/></clipPath><clipPath id="27e13d9ada"><path d="M 248 152.679688 L 317 152.679688 L 317 221 L 248 221 Z M 248 152.679688 "/></clipPath><clipPath id="20d13b7e07"><path d="M 313 184 L 318.46875 184 L 318.46875 189 L 313 189 Z M 313 184 "/></clipPath><clipPath id="909755fc3b"><path d="M 280 218 L 285 218 L 285 222.429688 L 280 222.429688 Z M 280 218 "/></clipPath><clipPath id="dfd619bafb"><path d="M 56.71875 163 L 103 163 L 103 212 L 56.71875 212 Z M 56.71875 163 "/></clipPath></defs><g id="5a4407dcf4"><path style=" stroke:none;fill-rule:nonzero;fill:#ffffff;fill-opacity:1;" d="M 305.992188 210.867188 C 305.859375 210.867188 305.730469 210.835938 305.628906 210.734375 L 258.28125 163.351562 C 258.082031 163.15625 258.082031 162.859375 258.28125 162.664062 C 258.476562 162.46875 258.769531 162.46875 258.96875 162.664062 L 306.351562 210.046875 C 306.546875 210.242188 306.546875 210.539062 306.351562 210.734375 C 306.253906 210.800781 306.121094 210.867188 305.992188 210.867188 Z M 305.992188 210.867188 "/><path style=" stroke:none;fill-rule:nonzero;fill:#ffffff;fill-opacity:1;" d="M 258.671875 210.898438 C 258.542969 210.898438 258.410156 210.867188 258.3125 210.769531 C 258.117188 210.570312 258.117188 210.277344 258.3125 210.078125 L 305.695312 162.730469 C 305.894531 162.53125 306.1875 162.53125 306.382812 162.730469 C 306.582031 162.925781 306.582031 163.222656 306.382812 163.417969 L 259.035156 210.769531 C 258.933594 210.867188 258.804688 210.898438 258.671875 210.898438 Z M 258.671875 210.898438 "/><g clip-rule="nonzero" clip-path="url(#b3c96f6271)"><path style=" stroke:none;fill-rule:nonzero;fill:#ffffff;fill-opacity:1;" d="M 282.414062 220.703125 C 282.152344 220.703125 281.921875 220.476562 281.921875 220.210938 L 281.921875 153.1875 C 281.921875 152.925781 282.152344 152.695312 282.414062 152.695312 C 282.675781 152.695312 282.90625 152.925781 282.90625 153.1875 L 282.90625 220.210938 C 282.90625 220.476562 282.675781 220.703125 282.414062 220.703125 Z M 282.414062 220.703125 "/></g><path style=" stroke:none;fill-rule:nonzero;fill:#ffffff;fill-opacity:1;" d="M 315.925781 187.191406 L 248.867188 187.191406 C 248.605469 187.191406 248.375 186.960938 248.375 186.699219 C 248.375 186.4375 248.605469 186.207031 248.867188 186.207031 L 315.894531 186.207031 C 316.15625 186.207031 316.386719 186.4375 316.386719 186.699219 C 316.386719 186.960938 316.1875 187.191406 315.925781 187.191406 Z M 315.925781 187.191406 "/><path style=" stroke:none;fill-rule:nonzero;fill:#ffffff;fill-opacity:1;" d="M 311.367188 170.433594 L 253.164062 170.433594 C 252.902344 170.433594 252.671875 170.207031 252.671875 169.941406 C 252.671875 169.679688 252.902344 169.453125 253.164062 169.453125 L 311.367188 169.453125 C 311.632812 169.453125 311.859375 169.679688 311.859375 169.941406 C 311.859375 170.207031 311.632812 170.433594 311.367188 170.433594 Z M 311.367188 170.433594 "/><path style=" stroke:none;fill-rule:nonzero;fill:#ffffff;fill-opacity:1;" d="M 311.304688 203.949219 L 253.164062 203.949219 C 252.902344 203.949219 252.671875 203.71875 252.671875 203.457031 C 252.671875 203.195312 252.902344 202.964844 253.164062 202.964844 L 311.304688 202.964844 C 311.566406 202.964844 311.796875 203.195312 311.796875 203.457031 C 311.796875 203.71875 311.597656 203.949219 311.304688 203.949219 Z M 311.304688 203.949219 "/><g clip-rule="nonzero" clip-path="url(#c02f9bd508)"><path style=" stroke:none;fill-rule:nonzero;fill:#ffffff;fill-opacity:1;" d="M 282.414062 220.703125 C 282.152344 220.703125 281.921875 220.476562 281.921875 220.210938 L 281.921875 153.1875 C 281.921875 152.925781 282.152344 152.695312 282.414062 152.695312 C 282.675781 152.695312 282.90625 152.925781 282.90625 153.1875 L 282.90625 220.210938 C 282.90625 220.476562 282.675781 220.703125 282.414062 220.703125 Z M 282.414062 220.703125 "/></g><path style=" stroke:none;fill-rule:nonzero;fill:#ffffff;fill-opacity:1;" d="M 265.65625 216.113281 C 265.394531 216.113281 265.164062 215.882812 265.164062 215.621094 L 265.164062 157.613281 C 265.164062 157.351562 265.394531 157.121094 265.65625 157.121094 C 265.921875 157.121094 266.148438 157.351562 266.148438 157.613281 L 266.148438 215.621094 C 266.148438 215.917969 265.921875 216.113281 265.65625 216.113281 Z M 265.65625 216.113281 "/><path style=" stroke:none;fill-rule:nonzero;fill:#ffffff;fill-opacity:1;" d="M 299.171875 216.113281 C 298.90625 216.113281 298.679688 215.882812 298.679688 215.621094 L 298.679688 157.710938 C 298.679688 157.449219 298.90625 157.21875 299.171875 157.21875 C 299.433594 157.21875 299.664062 157.449219 299.664062 157.710938 L 299.664062 215.621094 C 299.664062 215.917969 299.433594 216.113281 299.171875 216.113281 Z M 299.171875 216.113281 "/><g clip-rule="nonzero" clip-path="url(#ad130c7acb)"><path style=" stroke:none;fill-rule:nonzero;fill:#ffffff;fill-opacity:1;" d="M 315.925781 187.191406 C 315.796875 187.191406 315.664062 187.160156 315.566406 187.058594 L 282.054688 153.515625 C 281.855469 153.316406 281.855469 153.023438 282.054688 152.824219 C 282.25 152.628906 282.546875 152.628906 282.742188 152.824219 L 316.253906 186.339844 C 316.453125 186.535156 316.453125 186.832031 316.253906 187.027344 C 316.15625 187.125 316.058594 187.191406 315.925781 187.191406 Z M 315.925781 187.191406 "/></g><path style=" stroke:none;fill-rule:nonzero;fill:#ffffff;fill-opacity:1;" d="M 282.414062 220.703125 C 282.28125 220.703125 282.152344 220.671875 282.054688 220.574219 L 248.539062 187.058594 C 248.34375 186.863281 248.34375 186.570312 248.539062 186.371094 C 248.738281 186.175781 249.03125 186.175781 249.230469 186.371094 L 282.742188 219.882812 C 282.9375 220.082031 282.9375 220.375 282.742188 220.574219 C 282.644531 220.671875 282.511719 220.703125 282.414062 220.703125 Z M 282.414062 220.703125 "/><path style=" stroke:none;fill-rule:nonzero;fill:#ffffff;fill-opacity:1;" d="M 282.414062 220.703125 C 282.28125 220.703125 282.152344 220.671875 282.054688 220.574219 C 281.855469 220.375 281.855469 220.082031 282.054688 219.882812 L 315.566406 186.371094 C 315.761719 186.175781 316.058594 186.175781 316.253906 186.371094 C 316.453125 186.570312 316.453125 186.863281 316.253906 187.058594 L 282.742188 220.574219 C 282.644531 220.671875 282.511719 220.703125 282.414062 220.703125 Z M 282.414062 220.703125 "/><g clip-rule="nonzero" clip-path="url(#e184ea6f31)"><path style=" stroke:none;fill-rule:nonzero;fill:#ffffff;fill-opacity:1;" d="M 248.867188 187.191406 C 248.738281 187.191406 248.605469 187.160156 248.507812 187.058594 C 248.3125 186.863281 248.3125 186.570312 248.507812 186.371094 L 282.054688 152.824219 C 282.25 152.628906 282.546875 152.628906 282.742188 152.824219 C 282.9375 153.023438 282.9375 153.316406 282.742188 153.515625 L 249.230469 187.058594 C 249.128906 187.125 249 187.191406 248.867188 187.191406 Z M 248.867188 187.191406 "/></g><g clip-rule="nonzero" clip-path="url(#27e13d9ada)"><path style=" stroke:none;fill-rule:nonzero;fill:#ffffff;fill-opacity:1;" d="M 282.316406 220.671875 C 263.558594 220.671875 248.3125 205.421875 248.3125 186.699219 C 248.3125 167.941406 263.558594 152.726562 282.316406 152.726562 C 301.074219 152.726562 316.320312 167.976562 316.320312 186.699219 C 316.320312 205.421875 301.074219 220.671875 282.316406 220.671875 Z M 282.316406 153.679688 C 264.117188 153.679688 249.292969 168.5 249.292969 186.667969 C 249.292969 204.867188 264.117188 219.65625 282.316406 219.65625 C 300.515625 219.65625 315.335938 204.867188 315.335938 186.667969 C 315.335938 168.46875 300.515625 153.679688 282.316406 153.679688 Z M 282.316406 153.679688 "/></g><path style=" stroke:none;fill-rule:nonzero;fill:#ffffff;fill-opacity:1;" d="M 285.203125 186.667969 C 285.203125 188.242188 283.921875 189.519531 282.347656 189.519531 C 280.773438 189.519531 279.496094 188.242188 279.496094 186.667969 C 279.496094 185.09375 280.773438 183.8125 282.347656 183.8125 C 283.957031 183.847656 285.203125 185.09375 285.203125 186.667969 "/><path style=" stroke:none;fill-rule:nonzero;fill:#ffffff;fill-opacity:1;" d="M 284.511719 203.457031 C 284.511719 204.636719 283.5625 205.554688 282.414062 205.554688 C 281.265625 205.554688 280.316406 204.605469 280.316406 203.457031 C 280.316406 202.308594 281.265625 201.359375 282.414062 201.359375 C 283.5625 201.359375 284.511719 202.277344 284.511719 203.457031 "/><path style=" stroke:none;fill-rule:nonzero;fill:#ffffff;fill-opacity:1;" d="M 267.757812 169.941406 C 267.757812 171.089844 266.804688 172.042969 265.65625 172.042969 C 264.511719 172.042969 263.558594 171.089844 263.558594 169.941406 C 263.558594 168.761719 264.511719 167.84375 265.65625 167.84375 C 266.804688 167.84375 267.757812 168.761719 267.757812 169.941406 "/><path style=" stroke:none;fill-rule:nonzero;fill:#ffffff;fill-opacity:1;" d="M 268.476562 203.457031 C 268.476562 205.03125 267.199219 206.308594 265.625 206.308594 C 264.050781 206.308594 262.773438 205.03125 262.773438 203.457031 C 262.773438 201.882812 264.050781 200.601562 265.625 200.601562 C 267.230469 200.601562 268.476562 201.882812 268.476562 203.457031 "/><g clip-rule="nonzero" clip-path="url(#20d13b7e07)"><path style=" stroke:none;fill-rule:nonzero;fill:#ffffff;fill-opacity:1;" d="M 318.027344 186.699219 C 318.027344 187.847656 317.074219 188.796875 315.925781 188.796875 C 314.777344 188.796875 313.828125 187.847656 313.828125 186.699219 C 313.828125 185.519531 314.777344 184.601562 315.925781 184.601562 C 317.074219 184.601562 318.027344 185.519531 318.027344 186.699219 "/></g><g clip-rule="nonzero" clip-path="url(#909755fc3b)"><path style=" stroke:none;fill-rule:nonzero;fill:#ffffff;fill-opacity:1;" d="M 284.511719 220.210938 C 284.511719 221.359375 283.5625 222.3125 282.414062 222.3125 C 281.265625 222.3125 280.316406 221.359375 280.316406 220.210938 C 280.316406 219.066406 281.265625 218.113281 282.414062 218.113281 C 283.5625 218.113281 284.511719 219.066406 284.511719 220.210938 "/></g><path style=" stroke:none;fill-rule:nonzero;fill:#ffffff;fill-opacity:1;" d="M 301.992188 215.621094 C 301.992188 217.195312 300.710938 218.472656 299.136719 218.472656 C 297.5625 218.472656 296.285156 217.195312 296.285156 215.621094 C 296.285156 214.046875 297.5625 212.769531 299.136719 212.769531 C 300.746094 212.800781 301.992188 214.046875 301.992188 215.621094 "/><path style=" stroke:none;fill-rule:nonzero;fill:#ffffff;fill-opacity:1;" d="M 255.261719 203.457031 C 255.261719 204.636719 254.3125 205.554688 253.164062 205.554688 C 252.015625 205.554688 251.066406 204.605469 251.066406 203.457031 C 251.066406 202.308594 252.015625 201.359375 253.164062 201.359375 C 254.3125 201.359375 255.261719 202.277344 255.261719 203.457031 "/><path style=" stroke:none;fill-rule:nonzero;fill:#ffffff;fill-opacity:1;" d="M 301.992188 157.710938 C 301.992188 159.285156 300.710938 160.566406 299.136719 160.566406 C 297.5625 160.566406 296.285156 159.285156 296.285156 157.710938 C 296.285156 156.136719 297.5625 154.859375 299.136719 154.859375 C 300.746094 154.859375 301.992188 156.136719 301.992188 157.710938 "/><path style=" stroke:none;fill-rule:nonzero;fill:#ffffff;fill-opacity:1;" d="M 255.984375 169.976562 C 255.984375 171.550781 254.707031 172.828125 253.132812 172.828125 C 251.558594 172.828125 250.277344 171.550781 250.277344 169.976562 C 250.277344 168.402344 251.558594 167.125 253.132812 167.125 C 254.738281 167.15625 255.984375 168.433594 255.984375 169.976562 "/><path style=" stroke:none;fill-rule:nonzero;fill:#ffffff;fill-opacity:1;" d="M 313.46875 169.941406 C 313.46875 171.089844 312.515625 172.042969 311.367188 172.042969 C 310.222656 172.042969 309.269531 171.089844 309.269531 169.941406 C 309.269531 168.761719 310.222656 167.84375 311.367188 167.84375 C 312.515625 167.84375 313.46875 168.761719 313.46875 169.941406 "/><path style=" stroke:none;fill-rule:nonzero;fill:#ffffff;fill-opacity:1;" d="M 301.269531 186.734375 C 301.269531 187.914062 300.316406 188.832031 299.171875 188.832031 C 298.023438 188.832031 297.070312 187.878906 297.070312 186.734375 C 297.070312 185.585938 298.023438 184.632812 299.171875 184.632812 C 300.316406 184.632812 301.269531 185.550781 301.269531 186.734375 "/><path style=" stroke:none;fill-rule:nonzero;fill:#ffffff;fill-opacity:1;" d="M 260.738281 162.992188 C 260.738281 164.140625 259.789062 165.089844 258.640625 165.089844 C 257.492188 165.089844 256.542969 164.140625 256.542969 162.992188 C 256.542969 161.84375 257.492188 160.894531 258.640625 160.894531 C 259.789062 160.894531 260.738281 161.84375 260.738281 162.992188 "/><g clip-rule="nonzero" clip-path="url(#dfd619bafb)"><path style=" stroke:none;fill-rule:nonzero;fill:#ffffff;fill-opacity:1;" d="M 101.765625 163.089844 L 93.699219 163.089844 C 93.503906 163.089844 93.339844 163.1875 93.273438 163.351562 L 79.664062 188.601562 L 65.925781 163.351562 C 65.828125 163.1875 65.664062 163.089844 65.5 163.089844 L 57.464844 163.089844 C 57.203125 163.089844 56.972656 163.320312 56.972656 163.582031 L 56.972656 211.097656 C 56.972656 211.359375 57.203125 211.589844 57.464844 211.589844 L 65.171875 211.589844 C 65.433594 211.589844 65.664062 211.359375 65.664062 211.097656 L 65.664062 180.074219 L 77.761719 201.191406 C 77.863281 201.355469 78.027344 201.453125 78.1875 201.453125 L 81.007812 201.453125 C 81.171875 201.453125 81.335938 201.355469 81.4375 201.191406 L 93.46875 180.007812 L 93.46875 211.0625 C 93.46875 211.324219 93.699219 211.554688 93.960938 211.554688 L 101.734375 211.554688 C 101.863281 211.554688 101.996094 211.488281 102.09375 211.425781 C 102.191406 211.324219 102.226562 211.195312 102.226562 211.0625 L 102.226562 163.582031 C 102.257812 163.285156 102.027344 163.089844 101.765625 163.089844 Z M 101.765625 163.089844 "/></g><path style=" stroke:none;fill-rule:nonzero;fill:#ffffff;fill-opacity:1;" d="M 222.636719 162.960938 L 215.386719 162.960938 C 215.125 162.960938 214.898438 163.1875 214.898438 163.453125 L 214.898438 211.226562 C 214.898438 211.488281 215.125 211.71875 215.386719 211.71875 L 222.636719 211.71875 C 222.898438 211.71875 223.128906 211.488281 223.128906 211.226562 L 223.128906 163.453125 C 223.128906 163.15625 222.929688 162.960938 222.636719 162.960938 Z M 222.636719 162.960938 "/><path style=" stroke:none;fill-rule:nonzero;fill:#ffffff;fill-opacity:1;" d="M 202.730469 202.769531 L 197.484375 197.457031 C 197.289062 197.257812 196.992188 197.257812 196.796875 197.457031 C 192.925781 201.0625 189.417969 203.292969 183.777344 203.292969 C 175.316406 203.292969 168.921875 196.4375 168.921875 187.324219 L 168.921875 187.191406 C 168.921875 182.863281 170.433594 178.863281 173.152344 175.910156 C 175.910156 172.925781 179.679688 171.289062 183.777344 171.289062 C 188.335938 171.289062 192.238281 173.027344 196.46875 176.929688 C 196.566406 177.027344 196.699219 177.058594 196.828125 177.058594 C 196.960938 177.058594 197.089844 176.992188 197.191406 176.894531 L 202.4375 170.863281 C 202.601562 170.664062 202.601562 170.371094 202.402344 170.171875 C 198.601562 166.535156 193.386719 162.796875 183.875 162.796875 C 169.941406 162.796875 159.414062 173.355469 159.414062 187.320312 L 159.414062 187.453125 C 159.414062 194.078125 161.875 200.210938 166.300781 204.765625 C 170.792969 209.359375 176.890625 211.851562 183.550781 211.851562 C 189.058594 211.851562 195.648438 210.867188 202.765625 203.457031 C 202.929688 203.257812 202.929688 202.964844 202.730469 202.765625 Z M 202.730469 202.769531 "/><path style=" stroke:none;fill-rule:nonzero;fill:#ffffff;fill-opacity:1;" d="M 145.441406 187.355469 C 143.179688 185.554688 140.230469 184.371094 135.964844 183.519531 C 135.933594 183.519531 135.835938 183.488281 135.738281 183.453125 C 135.671875 183.453125 135.605469 183.421875 135.539062 183.421875 C 135.113281 183.324219 134.164062 183.125 133.179688 182.929688 C 132.128906 182.734375 131.015625 182.503906 130.6875 182.40625 C 128.097656 181.683594 126.554688 180.996094 125.636719 180.109375 C 124.75 179.289062 124.324219 178.207031 124.261719 176.796875 L 124.261719 176.273438 C 124.390625 173.257812 126.753906 171.125 130.457031 170.667969 C 131.375 170.566406 132.261719 170.535156 133.144531 170.601562 C 136.882812 170.863281 140.066406 172.140625 142.949219 174.46875 C 143.082031 174.601562 143.34375 174.632812 143.507812 174.570312 L 143.542969 174.570312 C 143.671875 174.570312 143.804688 174.503906 143.902344 174.40625 L 148.296875 169.191406 C 148.460938 168.992188 148.460938 168.664062 148.230469 168.503906 C 143.640625 164.535156 138.65625 162.761719 132.0625 162.761719 C 122.257812 162.761719 115.667969 168.46875 115.667969 176.996094 L 115.667969 177.160156 C 115.667969 181.09375 116.847656 184.078125 119.210938 186.308594 C 121.339844 188.308594 124.457031 189.71875 128.6875 190.601562 C 128.949219 190.667969 129.605469 190.800781 130.261719 190.929688 C 130.71875 191.03125 131.144531 191.09375 131.34375 191.160156 C 131.636719 191.226562 132.292969 191.355469 132.917969 191.457031 C 133.507812 191.554688 134.097656 191.683594 134.292969 191.71875 C 136.65625 192.308594 138.195312 192.765625 139.34375 193.683594 C 140.65625 194.703125 141.214844 195.980469 141.246094 197.851562 L 141.246094 197.980469 C 141.246094 201.359375 138.589844 203.589844 134.164062 203.949219 C 133.671875 203.980469 133.144531 204.015625 132.621094 204.015625 C 132.164062 204.015625 131.703125 204.015625 131.246094 203.980469 C 126.652344 203.652344 123.078125 202.113281 119.703125 198.996094 C 119.570312 198.867188 119.375 198.832031 119.242188 198.867188 L 119.210938 198.867188 C 119.078125 198.867188 118.949219 198.933594 118.847656 199.03125 L 114.0625 204.246094 C 113.863281 204.441406 113.898438 204.734375 114.09375 204.933594 C 119.078125 209.65625 125.113281 211.917969 132.554688 211.917969 C 143.113281 211.917969 149.902344 206.246094 149.902344 197.488281 L 149.902344 197.359375 C 149.933594 193.0625 148.425781 189.683594 145.441406 187.355469 Z M 145.441406 187.355469 "/><path style=" stroke:none;fill-rule:nonzero;fill:#ffffff;fill-opacity:1;" d="M 267.753906 157.714844 C 267.753906 158.859375 266.804688 159.8125 265.65625 159.8125 C 264.507812 159.8125 263.558594 158.859375 263.558594 157.714844 C 263.558594 156.53125 264.507812 155.613281 265.65625 155.613281 C 266.804688 155.613281 267.753906 156.566406 267.753906 157.714844 "/></g></svg>