<svg xmlns="http://www.w3.org/2000/svg" xmlns:xlink="http://www.w3.org/1999/xlink" width="500" zoomAndPan="magnify" viewBox="0 0 375 374.999991" height="500" preserveAspectRatio="xMidYMid meet" version="1.2"><defs><clipPath id="a19fe9a620"><path d="M 38 157.082031 L 336 157.082031 L 336 217.832031 L 38 217.832031 Z M 38 157.082031 "/></clipPath></defs><g id="9c099ee588"><g clip-rule="nonzero" clip-path="url(#a19fe9a620)"><path style=" stroke:none;fill-rule:nonzero;fill:#000000;fill-opacity:1;" d="M 38.976562 157.074219 L 335.714844 157.074219 C 335.71875 157.074219 335.71875 157.074219 335.71875 157.078125 L 335.71875 217.882812 C 335.71875 217.886719 335.71875 217.886719 335.714844 217.886719 L 38.976562 217.886719 C 38.972656 217.886719 38.972656 217.886719 38.972656 217.882812 L 38.972656 157.078125 C 38.972656 157.074219 38.972656 157.074219 38.976562 157.074219 Z M 38.976562 157.074219 "/></g><path style=" stroke:none;fill-rule:nonzero;fill:#ffffff;fill-opacity:1;" d="M 53.941406 206.429688 L 83.996094 206.429688 L 85.828125 196.746094 L 84.242188 196.746094 C 81.429688 202.503906 81.859375 204.710938 73 204.710938 C 67.503906 204.710938 65.121094 204.332031 65.121094 199.761719 L 65.121094 187.601562 L 70.253906 187.601562 C 74.34375 187.601562 75.75 189.484375 75.871094 192.65625 L 77.460938 192.65625 L 77.460938 181.199219 L 75.871094 181.199219 C 75.75 184.535156 74.101562 185.878906 70.253906 185.878906 L 65.121094 185.878906 L 65.121094 170.492188 L 73.429688 170.492188 C 77.828125 170.492188 79.046875 173.453125 79.660156 177.433594 L 81.246094 177.433594 L 81.246094 168.769531 L 53.941406 168.769531 L 53.941406 170.167969 C 59.441406 170.761719 59.195312 170.492188 59.195312 175.496094 L 59.195312 199.707031 C 59.195312 204.710938 59.441406 204.441406 53.941406 205.03125 Z M 53.941406 206.429688 "/><path style=" stroke:none;fill-rule:nonzero;fill:#ffffff;fill-opacity:1;" d="M 94.179688 206.246094 L 124.171875 206.246094 L 126.003906 196.5625 L 124.476562 196.5625 C 121.664062 202.320312 122.03125 204.523438 113.175781 204.523438 C 107.738281 204.523438 105.355469 204.148438 105.355469 200.382812 L 105.355469 175.3125 C 105.355469 170.308594 105.113281 170.578125 110.609375 169.984375 L 110.609375 168.585938 L 94.179688 168.585938 L 94.179688 169.984375 C 99.675781 170.578125 99.429688 170.308594 99.429688 175.3125 L 99.429688 199.523438 C 99.429688 204.523438 99.675781 204.257812 94.179688 204.847656 Z M 94.179688 206.246094 "/><path style=" stroke:none;fill-rule:nonzero;fill:#ffffff;fill-opacity:1;" d="M 132.449219 206.480469 L 162.441406 206.480469 L 164.277344 196.792969 L 162.75 196.792969 C 159.9375 202.550781 160.304688 204.757812 151.449219 204.757812 C 146.011719 204.757812 143.628906 204.378906 143.628906 200.613281 L 143.628906 175.542969 C 143.628906 170.539062 143.382812 170.808594 148.882812 170.214844 L 148.882812 168.816406 L 132.449219 168.816406 L 132.449219 170.214844 C 137.949219 170.808594 137.703125 170.539062 137.703125 175.542969 L 137.703125 199.753906 C 137.703125 204.757812 137.949219 204.488281 132.449219 205.078125 Z M 132.449219 206.480469 "/><path style=" stroke:none;fill-rule:nonzero;fill:#ffffff;fill-opacity:1;" d="M 183.511719 175.613281 C 183.511719 170.609375 183.269531 170.875 188.765625 170.285156 L 188.765625 168.886719 L 172.335938 168.886719 L 172.335938 170.285156 C 177.832031 170.875 177.585938 170.609375 177.585938 175.613281 L 177.585938 199.820312 C 177.585938 204.824219 177.832031 204.554688 172.335938 205.148438 L 172.335938 206.546875 L 188.765625 206.546875 L 188.765625 205.148438 C 183.269531 204.554688 183.511719 204.824219 183.511719 199.820312 Z M 183.511719 175.613281 "/><path style=" stroke:none;fill-rule:nonzero;fill:#ffffff;fill-opacity:1;" d="M 216.101562 207.21875 C 229.394531 207.21875 238.898438 197.964844 238.898438 186.613281 C 238.898438 178.328125 231.320312 168.269531 218.269531 168.269531 C 205.757812 168.269531 195.652344 176.824219 195.652344 188.445312 C 195.652344 198.882812 204.617188 207.21875 216.101562 207.21875 Z M 217.726562 205.335938 C 209.96875 205.335938 202.511719 198.667969 202.511719 185.644531 C 202.511719 178.328125 206.71875 170.152344 216.945312 170.152344 C 224.28125 170.152344 232.039062 175.371094 232.039062 188.230469 C 232.039062 195.4375 228.914062 205.335938 217.726562 205.335938 Z M 217.726562 205.335938 "/><path style=" stroke:none;fill-rule:nonzero;fill:#ffffff;fill-opacity:1;" d="M 264.765625 170.367188 L 270.175781 170.367188 C 275.40625 170.367188 276.609375 173.328125 278.59375 176.878906 L 280.097656 176.878906 L 278.472656 168.644531 L 245.222656 168.644531 L 243.597656 176.878906 L 245.101562 176.878906 C 247.085938 173.328125 248.289062 170.367188 253.519531 170.367188 L 258.933594 170.367188 L 258.933594 199.582031 C 258.933594 204.585938 259.171875 204.316406 253.761719 204.90625 L 253.761719 206.304688 L 269.933594 206.304688 L 269.933594 204.90625 C 264.523438 204.316406 264.765625 204.585938 264.765625 199.582031 Z M 264.765625 170.367188 "/><path style=" stroke:none;fill-rule:nonzero;fill:#ffffff;fill-opacity:1;" d="M 305.492188 170.511719 L 310.902344 170.511719 C 316.132812 170.511719 317.335938 173.46875 319.320312 177.019531 L 320.824219 177.019531 L 319.199219 168.789062 L 285.949219 168.789062 L 284.324219 177.019531 L 285.828125 177.019531 C 287.8125 173.46875 289.015625 170.511719 294.246094 170.511719 L 299.660156 170.511719 L 299.660156 199.726562 C 299.660156 204.730469 299.898438 204.460938 294.488281 205.050781 L 294.488281 206.449219 L 310.660156 206.449219 L 310.660156 205.050781 C 305.25 204.460938 305.492188 204.730469 305.492188 199.726562 Z M 305.492188 170.511719 "/></g></svg>