<svg xmlns="http://www.w3.org/2000/svg" xmlns:xlink="http://www.w3.org/1999/xlink" width="500" zoomAndPan="magnify" viewBox="0 0 375 374.999991" height="500" preserveAspectRatio="xMidYMid meet" version="1.2"><defs><clipPath id="d0db655370"><path d="M 67.242188 162 L 104 162 L 104 200 L 67.242188 200 Z M 67.242188 162 "/></clipPath><clipPath id="1374d50e45"><path d="M 157 173 L 217 173 L 217 212.960938 L 157 212.960938 Z M 157 173 "/></clipPath><clipPath id="5ef345a668"><path d="M 297 162 L 307.992188 162 L 307.992188 172 L 297 172 Z M 297 162 "/></clipPath></defs><g id="f0fb61230e"><path style=" stroke:none;fill-rule:nonzero;fill:#ffffff;fill-opacity:1;" d="M 157.792969 199.261719 L 157.792969 199.582031 L 146.109375 199.582031 L 146.109375 195.046875 L 146.191406 195.046875 L 146.109375 195.046875 C 146.109375 195.046875 146.109375 183.125 146.109375 183.125 C 146.070312 182.441406 146.351562 179.3125 142.820312 179.351562 C 142.820312 179.351562 139.207031 179.390625 139.289062 183.765625 L 139.289062 195.566406 C 139.410156 199.21875 141.574219 199.261719 141.574219 199.261719 L 141.574219 199.582031 L 123.070312 199.582031 C 122.832031 199.621094 114.601562 199.863281 114.28125 192.234375 L 114.28125 188.101562 C 114.28125 188.101562 111.03125 188.824219 110.027344 189.585938 C 110.027344 189.585938 107.417969 191.234375 109.144531 194.082031 C 109.144531 194.082031 110.429688 196.332031 114.5625 195.488281 L 112.554688 199.582031 L 108.582031 199.582031 C 108.582031 199.582031 99.3125 199.78125 98.226562 192.957031 C 98.226562 192.917969 97.382812 187.621094 103.726562 185.453125 C 103.726562 185.453125 105.894531 184.691406 110.027344 183.96875 C 110.066406 183.96875 113.558594 183.484375 113.878906 181.601562 C 113.960938 181.277344 113.921875 180.878906 113.761719 180.476562 C 113.800781 180.636719 112.195312 176.339844 102.160156 180.675781 C 102.199219 180.714844 104.207031 174.414062 104.207031 174.414062 C 104.207031 174.414062 113.640625 171.644531 120.222656 175.699219 C 120.183594 175.738281 123.675781 177.585938 123.59375 183.40625 C 123.59375 183.367188 123.714844 191.433594 123.714844 191.433594 C 123.714844 191.554688 123.714844 195.527344 127.648438 195.769531 C 127.648438 195.808594 129.050781 195.808594 129.855469 195.808594 L 129.855469 178.308594 C 129.855469 178.226562 130.054688 174.574219 127.648438 174.414062 L 127.648438 174.09375 L 139.410156 173.652344 L 139.410156 176.621094 C 140.050781 175.980469 142.660156 173.691406 146.472656 173.613281 C 146.472656 173.613281 155.625 173.292969 155.625 182.242188 C 155.625 182.242188 155.625 195.167969 155.625 195.167969 C 155.421875 199.179688 157.792969 199.261719 157.792969 199.261719 Z M 157.792969 199.261719 "/><g clip-rule="nonzero" clip-path="url(#d0db655370)"><path style=" stroke:none;fill-rule:nonzero;fill:#ffffff;fill-opacity:1;" d="M 67.242188 162.453125 L 67.242188 162.050781 L 80.003906 162.050781 L 89.15625 188.785156 L 95.9375 167.3125 C 95.9375 167.3125 97.304688 163.699219 93.609375 162.253906 L 93.609375 162.011719 L 103.847656 162.011719 L 90.921875 199.824219 L 85.542969 197.734375 C 85.542969 197.734375 81.207031 196.449219 78.878906 189.910156 L 70.492188 166.707031 C 70.492188 166.75 69.449219 163.015625 67.242188 162.453125 Z M 67.242188 162.453125 "/></g><path style=" stroke:none;fill-rule:nonzero;fill:#ffffff;fill-opacity:1;" d="M 294.742188 195.003906 C 294.703125 199.5 297.070312 199.261719 297.070312 199.261719 L 297.070312 199.582031 L 285.066406 199.582031 L 285.066406 183.125 C 285.066406 183.285156 285.066406 178.992188 281.335938 178.949219 C 281.296875 178.992188 276.960938 178.550781 276.960938 186.65625 C 276.921875 186.699219 276.921875 196.167969 284.265625 194.964844 C 284.265625 195.003906 281.695312 199.582031 281.695312 199.582031 C 281.695312 199.582031 275.714844 201.628906 270.777344 196.371094 C 270.777344 196.371094 267.007812 193.121094 267.007812 186.699219 C 267.046875 186.738281 266.886719 180.675781 270.777344 176.824219 C 270.699219 176.863281 276.71875 170.039062 285.066406 175.296875 L 285.066406 166.789062 C 285.066406 166.707031 285.269531 163.054688 282.859375 162.894531 L 282.859375 162.574219 L 294.742188 162.132812 Z M 294.742188 195.003906 "/><path style=" stroke:none;fill-rule:nonzero;fill:#ffffff;fill-opacity:1;" d="M 259.019531 176.863281 C 261.628906 171.964844 266.644531 173.492188 266.644531 173.492188 L 266.644531 179.914062 C 258.699219 178.589844 259.058594 184.570312 259.019531 184.53125 L 259.019531 195.003906 C 258.980469 199.460938 261.226562 199.261719 261.347656 199.261719 L 261.347656 199.582031 L 242.601562 199.582031 C 242.363281 199.621094 234.132812 199.863281 233.8125 192.234375 L 233.8125 188.101562 C 233.8125 188.101562 230.5625 188.824219 229.558594 189.585938 C 229.558594 189.585938 226.949219 191.234375 228.675781 194.082031 C 228.675781 194.082031 229.960938 196.332031 234.054688 195.488281 L 232.046875 199.582031 L 228.074219 199.582031 C 228.074219 199.582031 218.800781 199.78125 217.71875 192.957031 C 217.71875 192.917969 216.875 187.621094 223.214844 185.453125 C 223.214844 185.453125 225.382812 184.691406 229.515625 183.96875 C 229.558594 183.96875 233.050781 183.484375 233.371094 181.601562 C 233.449219 181.277344 233.449219 180.878906 233.25 180.476562 C 233.289062 180.636719 231.683594 176.339844 221.652344 180.675781 C 221.691406 180.714844 223.738281 174.414062 223.738281 174.414062 C 223.738281 174.414062 233.171875 171.644531 239.753906 175.699219 C 239.710938 175.738281 243.164062 177.585938 243.125 183.40625 C 243.125 183.367188 243.246094 191.433594 243.246094 191.433594 C 243.246094 191.554688 243.246094 195.527344 247.179688 195.769531 C 247.179688 195.808594 248.742188 195.808594 249.507812 195.808594 L 249.507812 178.269531 C 249.507812 178.1875 249.707031 174.535156 247.296875 174.375 L 247.296875 174.054688 L 259.058594 173.570312 L 259.058594 176.863281 Z M 259.019531 176.863281 "/><g clip-rule="nonzero" clip-path="url(#1374d50e45)"><path style=" stroke:none;fill-rule:nonzero;fill:#ffffff;fill-opacity:1;" d="M 171.398438 187.660156 C 175.011719 187.660156 174.570312 182.644531 174.570312 182.601562 C 174.488281 178.308594 171.398438 178.429688 171.398438 178.429688 C 167.988281 178.429688 168.105469 182.722656 168.066406 182.683594 C 167.707031 187.417969 171.117188 187.699219 171.398438 187.660156 Z M 198.25 173.453125 L 198.25 190.148438 C 198.25 190.148438 198.171875 193.761719 201.460938 193.722656 C 201.460938 193.679688 204.953125 194.242188 205.074219 189.265625 L 205.074219 178.109375 C 205.074219 178.027344 205.273438 174.375 202.867188 174.214844 L 202.867188 173.894531 L 214.625 173.453125 L 214.625 194.964844 C 214.625 195.046875 214.425781 199.101562 216.953125 199.21875 L 216.953125 199.542969 L 205.074219 199.542969 L 205.074219 196.492188 C 204.59375 196.972656 201.941406 199.5 197.929688 199.582031 C 197.929688 199.582031 188.617188 199.902344 188.617188 190.910156 C 188.578125 190.832031 188.617188 181.359375 188.617188 178.109375 L 181.433594 178.109375 C 181.714844 178.347656 182.035156 178.789062 182.074219 178.789062 C 186.089844 183.929688 182.195312 188.222656 182.15625 188.261719 C 179.585938 191.875 171.238281 192.878906 171.238281 192.878906 L 170.714844 192.917969 C 167.90625 193 168.789062 194.445312 168.789062 194.445312 C 169.191406 195.40625 171.238281 195.246094 171.238281 195.246094 L 176.015625 195.246094 C 185.6875 195.207031 186.691406 201.546875 186.730469 201.546875 C 188.335938 210.417969 179.386719 213.066406 170.476562 212.828125 C 161.605469 212.867188 158.351562 209.015625 158.394531 209.054688 C 156.144531 206.445312 157.351562 202.832031 161.324219 201.707031 C 164.253906 200.90625 167.746094 201.707031 167.746094 201.707031 C 165.097656 202.070312 165.578125 204.757812 165.578125 204.800781 C 166.460938 207.96875 170.996094 208.011719 171.277344 208.011719 C 177.058594 207.730469 177.21875 204.917969 177.21875 203.515625 C 177.21875 201.707031 175.691406 200.625 175.691406 200.625 C 173.605469 199.101562 169.632812 199.582031 166.863281 199.460938 C 163.007812 199.261719 162.003906 195.609375 161.804688 194.484375 C 161.605469 193.359375 161.84375 192.917969 162.488281 192.476562 C 163.652344 191.792969 166.300781 191.472656 166.019531 191.515625 L 166.058594 191.515625 C 166.019531 191.515625 165.980469 191.515625 165.980469 191.515625 C 162.648438 190.46875 160.679688 187.660156 160.640625 187.660156 C 156.425781 181.601562 161.324219 176.863281 161.324219 176.863281 C 164.132812 174.132812 167.746094 173.53125 170.957031 173.371094 L 198.25 173.371094 Z M 198.25 173.453125 "/></g><g clip-rule="nonzero" clip-path="url(#5ef345a668)"><path style=" stroke:none;fill-rule:nonzero;fill:#ffffff;fill-opacity:1;" d="M 298.59375 166.828125 C 298.59375 169.078125 300.441406 170.882812 302.6875 170.882812 C 304.9375 170.882812 306.78125 169.078125 306.78125 166.828125 C 306.78125 164.582031 304.9375 162.773438 302.6875 162.773438 C 300.441406 162.773438 298.59375 164.582031 298.59375 166.828125 Z M 297.953125 166.828125 C 297.953125 164.21875 300.078125 162.132812 302.6875 162.132812 C 305.296875 162.132812 307.425781 164.261719 307.425781 166.828125 C 307.425781 169.4375 305.296875 171.523438 302.6875 171.523438 C 300.078125 171.566406 297.953125 169.4375 297.953125 166.828125 Z M 297.953125 166.828125 "/></g><path style=" stroke:none;fill-rule:nonzero;fill:#ffffff;fill-opacity:1;" d="M 301.644531 167.109375 L 301.644531 169.597656 L 300.882812 169.597656 L 300.882812 164.101562 L 302.890625 164.101562 C 303.8125 164.101562 304.816406 164.378906 304.816406 165.503906 C 304.816406 166.1875 304.414062 166.667969 303.773438 166.828125 C 304.453125 166.988281 304.535156 167.351562 304.617188 167.953125 C 304.695312 168.515625 304.777344 169.117188 304.976562 169.640625 L 304.132812 169.640625 C 304.054688 169.316406 303.972656 168.957031 303.933594 168.59375 C 303.851562 168.113281 303.851562 167.632812 303.613281 167.351562 C 303.371094 167.109375 303.089844 167.109375 302.769531 167.109375 Z M 301.644531 166.46875 L 302.929688 166.46875 C 303.773438 166.425781 303.972656 166.027344 303.972656 165.625 C 303.972656 165.183594 303.773438 164.78125 302.929688 164.78125 L 301.644531 164.78125 Z M 301.644531 166.46875 "/></g></svg>