<svg xmlns="http://www.w3.org/2000/svg" xmlns:xlink="http://www.w3.org/1999/xlink" width="500" zoomAndPan="magnify" viewBox="0 0 375 374.999991" height="500" preserveAspectRatio="xMidYMid meet" version="1.2"><defs><clipPath id="730fb79dd5"><path d="M 85.429688 170 L 155 170 L 155 252 L 85.429688 252 Z M 85.429688 170 "/></clipPath><clipPath id="28875ec4ad"><path d="M 150 123 L 289.429688 123 L 289.429688 161 L 150 161 Z M 150 123 "/></clipPath></defs><g id="5e3c0fbfff"><g clip-rule="nonzero" clip-path="url(#730fb79dd5)"><path style=" stroke:none;fill-rule:nonzero;fill:#ffffff;fill-opacity:1;" d="M 145.675781 226.476562 C 141.054688 232.375 133.882812 236.039062 125.914062 236.039062 C 112.046875 236.039062 100.730469 224.726562 100.730469 210.859375 C 100.730469 196.992188 112.046875 185.679688 125.914062 185.679688 C 133.402344 185.679688 140.257812 189.023438 144.878906 194.285156 L 154.28125 182.332031 C 146.949219 175 136.910156 170.539062 125.914062 170.539062 C 103.441406 170.539062 85.429688 188.546875 85.429688 210.859375 C 85.429688 233.171875 103.441406 251.179688 125.753906 251.179688 C 136.910156 251.179688 146.949219 246.71875 154.28125 239.386719 Z M 145.675781 226.476562 "/></g><path style=" stroke:none;fill-rule:nonzero;fill:#ffffff;fill-opacity:1;" d="M 162.410156 172.132812 L 179.460938 172.132812 L 179.460938 250.382812 L 162.410156 250.382812 Z M 162.410156 172.132812 "/><path style=" stroke:none;fill-rule:nonzero;fill:#ffffff;fill-opacity:1;" d="M 255.324219 172.449219 L 272.378906 172.449219 L 272.378906 250.703125 L 255.324219 250.703125 Z M 255.324219 172.449219 "/><path style=" stroke:none;fill-rule:nonzero;fill:#ffffff;fill-opacity:1;" d="M 226.160156 251.179688 C 211.496094 251.179688 207.992188 238.75 207.671875 231.578125 L 207.511719 231.578125 L 207.511719 186.953125 L 192.53125 186.953125 L 192.53125 172.609375 L 207.511719 172.609375 L 207.511719 157.46875 L 222.652344 148.226562 L 222.175781 159.859375 L 222.175781 172.609375 L 237.476562 172.609375 L 237.476562 186.953125 L 222.175781 186.953125 L 222.175781 226.636719 C 222.015625 227.117188 222.015625 227.753906 222.015625 228.390625 C 222.015625 229.027344 222.015625 229.507812 222.175781 230.144531 L 222.175781 231.101562 C 222.8125 234.605469 225.042969 237.476562 228.230469 238.75 C 229.507812 239.226562 230.78125 239.546875 232.214844 239.546875 C 235.402344 239.546875 238.273438 238.113281 240.183594 235.882812 C 240.664062 235.402344 240.980469 234.765625 241.300781 234.289062 C 241.460938 233.808594 241.777344 251.179688 226.160156 251.179688 Z M 226.160156 251.179688 "/><path style=" stroke:none;fill-rule:nonzero;fill:#ffffff;fill-opacity:1;" d="M 222.335938 226.476562 L 222.335938 229.824219 C 222.175781 229.347656 222.175781 228.710938 222.175781 228.070312 C 222.175781 227.59375 222.175781 226.957031 222.335938 226.476562 Z M 222.335938 226.476562 "/><g clip-rule="nonzero" clip-path="url(#28875ec4ad)"><path style=" stroke:none;fill-rule:nonzero;fill:#ffffff;fill-opacity:1;" d="M 220.101562 123.523438 C 191.257812 123.523438 165.597656 138.183594 150.773438 160.496094 L 174.839844 160.496094 C 186.476562 149.179688 202.414062 142.007812 219.945312 142.007812 C 237.476562 142.007812 253.414062 149.023438 265.046875 160.496094 L 289.429688 160.496094 C 274.609375 138.503906 249.109375 123.523438 220.101562 123.523438 Z M 220.101562 123.523438 "/></g></g></svg>