<svg xmlns="http://www.w3.org/2000/svg" xmlns:xlink="http://www.w3.org/1999/xlink" width="500" zoomAndPan="magnify" viewBox="0 0 375 374.999991" height="500" preserveAspectRatio="xMidYMid meet" version="1.2"><defs><clipPath id="4ce13034fe"><path d="M 48.257812 167.347656 L 326.507812 167.347656 L 326.507812 207 L 48.257812 207 Z M 48.257812 167.347656 "/></clipPath></defs><g id="400d1d1064"><g clip-rule="nonzero" clip-path="url(#4ce13034fe)"><path style=" stroke:none;fill-rule:nonzero;fill:#ffffff;fill-opacity:1;" d="M 83.667969 206.019531 L 83.667969 167.347656 L 92.476562 167.347656 L 92.476562 206.019531 Z M 254.898438 191.570312 C 254.898438 182.222656 247.648438 176.421875 239.160156 176.421875 C 230.621094 176.421875 223.421875 182.277344 223.421875 191.570312 C 223.421875 200.914062 230.675781 206.769531 239.160156 206.769531 C 247.648438 206.769531 254.898438 200.863281 254.898438 191.570312 Z M 246.195312 191.570312 C 246.195312 196.457031 242.921875 199.195312 239.105469 199.195312 C 235.292969 199.195312 232.015625 196.457031 232.015625 191.570312 C 232.015625 186.628906 235.292969 183.996094 239.105469 183.996094 C 242.921875 183.996094 246.195312 186.628906 246.195312 191.570312 Z M 80.125 194.898438 C 80.125 190.550781 77.867188 187.21875 73.839844 185.714844 C 77.652344 183.621094 78.996094 180.882812 78.996094 177.660156 C 78.996094 172.019531 74.914062 167.347656 65.785156 167.398438 L 48.273438 167.398438 L 48.273438 206.070312 L 66.535156 206.070312 C 75.71875 206.019531 80.125 201.453125 80.125 194.898438 Z M 69.652344 178.785156 C 69.652344 181.417969 67.984375 182.921875 64.761719 182.921875 L 57.457031 182.921875 L 57.457031 174.867188 L 64.761719 174.867188 C 67.71875 174.867188 69.652344 176.15625 69.652344 178.785156 Z M 70.457031 194.308594 C 70.457031 196.832031 68.683594 198.5 65.40625 198.5 L 57.457031 198.5 L 57.457031 190.121094 L 65.40625 190.121094 C 68.578125 190.121094 70.457031 191.730469 70.457031 194.308594 Z M 156.824219 184.320312 C 154.40625 179.269531 149.894531 176.476562 143.074219 176.476562 C 135.015625 176.476562 127.820312 181.527344 127.820312 191.570312 C 127.820312 201.34375 134.15625 206.769531 142.964844 206.769531 C 149.140625 206.769531 154.351562 204.300781 156.824219 198.980469 L 149.734375 195.328125 C 148.445312 197.691406 146.457031 199.195312 143.289062 199.195312 C 139.207031 199.195312 136.574219 196.296875 136.574219 191.570312 C 136.574219 186.84375 139.582031 183.996094 143.234375 183.996094 C 146.082031 183.996094 148.230469 185.285156 149.570312 188.078125 Z M 286.640625 184.320312 C 284.222656 179.269531 279.710938 176.476562 272.890625 176.476562 C 264.835938 176.476562 257.636719 181.527344 257.636719 191.570312 C 257.636719 201.34375 263.976562 206.769531 272.785156 206.769531 C 278.960938 206.769531 284.167969 204.300781 286.640625 198.980469 L 279.550781 195.328125 C 278.261719 197.691406 276.273438 199.195312 273.105469 199.195312 C 269.023438 199.195312 266.390625 196.296875 266.390625 191.570312 C 266.390625 186.84375 269.398438 183.996094 273.050781 183.996094 C 275.898438 183.996094 278.046875 185.285156 279.390625 188.078125 Z M 212.789062 206.019531 L 205.429688 193.019531 L 199.792969 193.019531 L 199.792969 206.019531 L 190.714844 206.019531 L 190.714844 167.347656 L 207.09375 167.347656 C 215.957031 167.347656 222.132812 171.589844 222.132812 179.914062 C 222.132812 185.230469 219.503906 188.992188 214.828125 191.300781 L 223.316406 206.019531 Z M 199.84375 185.339844 L 206.613281 185.339844 C 210.800781 185.339844 212.84375 182.976562 212.84375 180.183594 C 212.84375 176.851562 210.910156 175.027344 206.613281 175.027344 L 199.84375 175.027344 Z M 126.371094 205.535156 L 126.371094 199.464844 C 125.992188 199.574219 125.457031 199.679688 124.867188 199.679688 C 123.738281 199.679688 123.148438 199.089844 123.148438 198.070312 L 123.148438 188.023438 C 123.148438 180.503906 118.097656 176.53125 109.773438 176.53125 C 104.347656 176.53125 99.730469 178.519531 96.828125 181.097656 L 101.714844 186.574219 C 103.648438 184.855469 106.226562 183.78125 108.753906 183.78125 C 112.621094 183.78125 114.445312 185.714844 114.445312 188.882812 L 114.445312 189.796875 C 112.621094 189.367188 110.308594 188.9375 107.515625 188.9375 C 100.480469 188.9375 95.914062 192.320312 95.914062 197.90625 C 95.914062 203.65625 99.730469 206.664062 105.636719 206.664062 C 109.664062 206.664062 113.265625 204.996094 115.144531 202.847656 C 116.273438 205.695312 118.742188 206.449219 121.160156 206.449219 C 122.824219 206.5 124.757812 206.234375 126.371094 205.535156 Z M 114.5 196.457031 C 114.5 199.089844 111.976562 200.808594 109.074219 200.808594 C 106.335938 200.808594 104.992188 199.410156 104.992188 197.476562 C 104.992188 195.4375 106.496094 193.933594 109.558594 193.933594 C 111.4375 193.933594 113.101562 194.253906 114.5 194.578125 Z M 318.113281 206.019531 L 307.75 188.023438 L 317.46875 177.445312 L 307.695312 177.445312 L 297.4375 188.832031 L 297.4375 167.398438 L 288.679688 167.398438 L 288.679688 206.070312 L 297.4375 206.070312 L 297.4375 199.089844 L 301.625 194.632812 L 308.179688 206.070312 L 318.113281 206.070312 Z M 188.40625 206.019531 L 178.039062 188.023438 L 187.761719 177.445312 L 177.878906 177.445312 L 167.726562 188.832031 L 167.726562 167.398438 L 158.972656 167.398438 L 158.972656 206.070312 L 167.726562 206.070312 L 167.726562 199.089844 L 171.914062 194.632812 L 178.46875 206.070312 L 188.40625 206.070312 Z M 323.484375 200.648438 C 325.3125 200.648438 326.386719 201.773438 326.386719 203.492188 C 326.386719 205.210938 325.3125 206.339844 323.484375 206.339844 C 321.660156 206.339844 320.585938 205.210938 320.585938 203.492188 C 320.585938 201.773438 321.660156 200.648438 323.484375 200.648438 Z M 323.484375 205.964844 C 324.9375 205.964844 325.902344 205.105469 325.902344 203.492188 C 325.902344 201.882812 324.882812 201.023438 323.484375 201.023438 C 322.035156 201.023438 321.070312 201.882812 321.070312 203.492188 C 321.015625 205.160156 322.035156 205.964844 323.484375 205.964844 Z M 322.359375 202.042969 L 323.539062 202.042969 C 324.238281 202.042969 324.613281 202.417969 324.613281 202.957031 C 324.613281 203.441406 324.398438 203.707031 324.023438 203.871094 L 324.558594 204.890625 L 324.023438 204.890625 L 323.539062 203.976562 L 322.894531 203.976562 L 322.894531 204.890625 L 322.359375 204.890625 Z M 322.894531 202.472656 L 322.894531 203.492188 L 323.484375 203.492188 C 323.863281 203.492188 324.078125 203.386719 324.078125 203.011719 C 324.078125 202.6875 323.914062 202.527344 323.539062 202.527344 L 322.894531 202.527344 Z M 322.894531 202.472656 "/></g></g></svg>