<svg xmlns="http://www.w3.org/2000/svg" xmlns:xlink="http://www.w3.org/1999/xlink" width="500" zoomAndPan="magnify" viewBox="0 0 375 374.999991" height="500" preserveAspectRatio="xMidYMid meet" version="1.2"><defs><clipPath id="fa090c4376"><path d="M 319 181 L 356.25 181 L 356.25 204.890625 L 319 204.890625 Z M 319 181 "/></clipPath><clipPath id="d8ac9f3eea"><path d="M 310 170.390625 L 347 170.390625 L 347 197 L 310 197 Z M 310 170.390625 "/></clipPath><clipPath id="f5c806462c"><path d="M 18.75 184 L 288 184 L 288 203 L 18.75 203 Z M 18.75 184 "/></clipPath><clipPath id="9c29f282a0"><path d="M 319 181 L 356.25 181 L 356.25 204.890625 L 319 204.890625 Z M 319 181 "/></clipPath><clipPath id="c504ea1e00"><path d="M 310 170.390625 L 347 170.390625 L 347 197 L 310 197 Z M 310 170.390625 "/></clipPath><clipPath id="29bea5d5d1"><path d="M 18.75 184 L 288 184 L 288 203 L 18.75 203 Z M 18.75 184 "/></clipPath></defs><g id="84a6a7c664"><g clip-rule="nonzero" clip-path="url(#fa090c4376)"><path style=" stroke:none;fill-rule:nonzero;fill:#d9d9d9;fill-opacity:1;" d="M 324.984375 204.1875 C 334.828125 195.75 348.65625 187.546875 356.25 184.59375 C 355.078125 183.84375 353.25 182.765625 351.1875 181.59375 C 341.390625 184.828125 329.953125 192 319.734375 200.109375 C 321.46875 201.421875 323.296875 202.78125 324.984375 204.1875 Z M 324.984375 204.1875 "/></g><path style=" stroke:none;fill-rule:nonzero;fill:#ffffff;fill-opacity:1;" d="M 320.484375 181.265625 C 319.03125 180.5625 317.4375 179.90625 316.21875 179.34375 C 312.515625 181.171875 307.6875 183.9375 301.59375 188.296875 C 302.90625 189 304.3125 189.84375 305.8125 190.6875 C 310.5 187.21875 315.234375 183.9375 320.484375 181.265625 Z M 320.484375 181.265625 "/><path style=" stroke:none;fill-rule:nonzero;fill:#d9d9d9;fill-opacity:1;" d="M 329.25 177.234375 C 327.46875 176.25 321.28125 173.953125 317.015625 172.96875 C 315.75 173.4375 313.96875 174.140625 312.75 174.65625 C 314.296875 175.078125 320.0625 176.625 324.984375 179.109375 C 326.25 178.5 328.03125 177.75 329.25 177.234375 Z M 329.25 177.234375 "/><path style=" stroke:none;fill-rule:nonzero;fill:#ffffff;fill-opacity:1;" d="M 308.296875 176.625 C 302.8125 179.15625 297.046875 182.625 293.90625 184.640625 C 295.03125 185.15625 296.15625 185.578125 297.703125 186.328125 C 304.640625 181.640625 310.078125 178.78125 312.234375 177.84375 C 310.6875 177.28125 309.234375 176.90625 308.296875 176.625 Z M 308.296875 176.625 "/><g clip-rule="nonzero" clip-path="url(#d8ac9f3eea)"><path style=" stroke:none;fill-rule:nonzero;fill:#d9d9d9;fill-opacity:1;" d="M 333.375 175.78125 C 334.640625 175.359375 336.09375 174.984375 337.359375 174.609375 C 333.703125 173.0625 329.109375 171.421875 324.984375 170.390625 C 324.328125 170.578125 322.359375 171.09375 321 171.515625 C 322.40625 171.9375 327.046875 173.015625 333.375 175.78125 Z M 310.265625 193.40625 C 311.765625 194.296875 313.359375 195.515625 314.90625 196.546875 C 325.171875 188.578125 335.296875 182.4375 346.40625 178.96875 C 344.859375 178.171875 343.5 177.46875 341.765625 176.625 C 335.109375 178.3125 323.71875 182.859375 310.265625 193.40625 Z M 310.265625 193.40625 "/></g><g clip-rule="nonzero" clip-path="url(#f5c806462c)"><path style=" stroke:none;fill-rule:nonzero;fill:#ffffff;fill-opacity:1;" d="M 18.75 201.75 L 26.25 201.75 C 30.046875 201.75 31.828125 199.78125 31.828125 197.015625 C 31.828125 194.765625 30.65625 193.265625 28.21875 192.796875 C 30.375 192.28125 31.359375 190.96875 31.359375 189.046875 C 31.359375 186.609375 29.578125 184.640625 25.78125 184.640625 L 18.796875 184.640625 L 18.796875 201.75 Z M 25.265625 194.484375 C 26.671875 194.484375 27.65625 195.1875 27.65625 196.59375 C 27.65625 198.09375 26.71875 198.703125 25.265625 198.703125 L 22.828125 198.703125 L 22.828125 194.4375 L 25.265625 194.4375 Z M 24.796875 187.640625 C 26.203125 187.640625 27.1875 188.25 27.1875 189.65625 C 27.1875 191.0625 26.25 191.671875 24.796875 191.671875 L 22.828125 191.671875 L 22.828125 187.640625 Z M 46.96875 184.59375 L 42.75 184.59375 L 36.328125 201.75 L 40.59375 201.75 L 41.765625 198.1875 L 47.953125 198.1875 L 49.125 201.75 L 53.4375 201.75 Z M 44.859375 188.71875 L 46.875 195.046875 L 42.75 195.046875 Z M 74.8125 184.59375 L 70.921875 184.59375 L 70.921875 196.078125 L 63.609375 184.59375 L 59.25 184.59375 L 59.25 201.75 L 63.140625 201.75 L 63.140625 190.3125 L 70.453125 201.75 L 74.8125 201.75 Z M 92.765625 201.75 L 87.140625 193.03125 L 87.140625 201.75 L 82.96875 201.75 L 82.96875 184.59375 L 87.140625 184.59375 L 87.140625 192.84375 L 92.484375 184.59375 L 97.125 184.59375 L 91.5 192.84375 L 97.640625 201.75 Z M 112.40625 193.171875 C 112.40625 196.59375 114.46875 198.703125 117.140625 198.703125 C 119.8125 198.703125 121.875 196.59375 121.875 193.171875 C 121.875 189.75 119.8125 187.640625 117.140625 187.640625 C 114.46875 187.640625 112.40625 189.75 112.40625 193.171875 Z M 108 193.171875 C 108.046875 188.15625 111.5625 184.21875 117.140625 184.21875 C 122.71875 184.21875 126.234375 188.15625 126.28125 193.171875 C 126.234375 198.1875 122.71875 202.125 117.140625 202.125 C 111.5625 202.125 108.046875 198.1875 108 193.171875 Z M 132 201.75 L 136.171875 201.75 L 136.171875 195 L 141.609375 195 L 141.609375 191.71875 L 136.171875 191.71875 L 136.171875 187.875 L 142.734375 187.875 L 143.484375 184.59375 L 132 184.59375 Z M 162.9375 184.59375 L 158.71875 184.59375 L 152.296875 201.75 L 156.5625 201.75 L 157.734375 198.1875 L 163.921875 198.1875 L 165.09375 201.75 L 169.40625 201.75 Z M 160.828125 188.71875 L 162.84375 195.046875 L 158.71875 195.046875 Z M 194.15625 184.59375 L 189.28125 184.59375 L 184.828125 193.875 L 180.375 184.59375 L 175.5 184.59375 L 175.5 201.75 L 179.25 201.75 L 179.25 190.265625 L 184.78125 201.75 L 190.3125 190.265625 L 190.3125 201.75 L 194.203125 201.75 Z M 202.265625 201.75 L 213.984375 201.75 L 213.984375 198.46875 L 206.4375 198.46875 L 206.4375 194.625 L 212.390625 194.625 L 212.390625 191.4375 L 206.4375 191.4375 L 206.4375 187.875 L 213.328125 187.875 L 214.078125 184.59375 L 202.265625 184.59375 Z M 229.875 201.75 L 234.421875 201.75 L 230.15625 194.484375 C 232.5 193.828125 233.625 192.1875 233.625 189.796875 C 233.625 186.703125 231.75 184.640625 227.53125 184.640625 L 220.921875 184.640625 L 220.921875 201.796875 L 225 201.796875 L 225 195.046875 L 226.125 195.046875 Z M 226.734375 187.78125 C 228.46875 187.78125 229.359375 188.53125 229.359375 189.984375 C 229.359375 191.4375 228.46875 192.1875 226.734375 192.1875 L 224.953125 192.1875 L 224.953125 187.78125 Z M 240.65625 201.75 L 244.828125 201.75 L 244.828125 184.640625 L 240.65625 184.640625 Z M 265.359375 197.15625 C 263.765625 198.28125 262.359375 198.65625 260.90625 198.65625 C 257.71875 198.65625 255.46875 196.453125 255.46875 193.171875 C 255.46875 189.890625 257.671875 187.6875 260.765625 187.6875 C 262.171875 187.6875 263.578125 188.0625 265.125 189.1875 L 265.125 185.296875 C 263.71875 184.5 262.078125 184.171875 260.25 184.171875 C 254.578125 184.171875 251.015625 188.109375 250.96875 193.125 C 251.015625 198.1875 254.484375 202.078125 260.25 202.078125 C 262.171875 202.078125 263.8125 201.75 265.3125 200.953125 L 265.3125 197.15625 Z M 280.640625 184.59375 L 276.421875 184.59375 L 270 201.75 L 274.265625 201.75 L 275.4375 198.1875 L 281.625 198.1875 L 282.796875 201.75 L 287.109375 201.75 Z M 278.53125 188.71875 L 280.546875 195.046875 L 276.421875 195.046875 Z M 278.53125 188.71875 "/></g><g clip-rule="nonzero" clip-path="url(#9c29f282a0)"><path style=" stroke:none;fill-rule:nonzero;fill:#d9d9d9;fill-opacity:1;" d="M 324.984375 204.1875 C 334.828125 195.75 348.65625 187.546875 356.25 184.59375 C 355.078125 183.84375 353.25 182.765625 351.1875 181.59375 C 341.390625 184.828125 329.953125 192 319.734375 200.109375 C 321.46875 201.421875 323.296875 202.78125 324.984375 204.1875 Z M 324.984375 204.1875 "/></g><path style=" stroke:none;fill-rule:nonzero;fill:#ffffff;fill-opacity:1;" d="M 320.484375 181.265625 C 319.03125 180.5625 317.4375 179.90625 316.21875 179.34375 C 312.515625 181.171875 307.6875 183.9375 301.59375 188.296875 C 302.90625 189 304.3125 189.84375 305.8125 190.6875 C 310.5 187.21875 315.234375 183.9375 320.484375 181.265625 Z M 320.484375 181.265625 "/><path style=" stroke:none;fill-rule:nonzero;fill:#d9d9d9;fill-opacity:1;" d="M 329.25 177.234375 C 327.46875 176.25 321.28125 173.953125 317.015625 172.96875 C 315.75 173.4375 313.96875 174.140625 312.75 174.65625 C 314.296875 175.078125 320.0625 176.625 324.984375 179.109375 C 326.25 178.5 328.03125 177.75 329.25 177.234375 Z M 329.25 177.234375 "/><path style=" stroke:none;fill-rule:nonzero;fill:#ffffff;fill-opacity:1;" d="M 308.296875 176.625 C 302.8125 179.15625 297.046875 182.625 293.90625 184.640625 C 295.03125 185.15625 296.15625 185.578125 297.703125 186.328125 C 304.640625 181.640625 310.078125 178.78125 312.234375 177.84375 C 310.6875 177.28125 309.234375 176.90625 308.296875 176.625 Z M 308.296875 176.625 "/><g clip-rule="nonzero" clip-path="url(#c504ea1e00)"><path style=" stroke:none;fill-rule:nonzero;fill:#d9d9d9;fill-opacity:1;" d="M 333.375 175.78125 C 334.640625 175.359375 336.09375 174.984375 337.359375 174.609375 C 333.703125 173.0625 329.109375 171.421875 324.984375 170.390625 C 324.328125 170.578125 322.359375 171.09375 321 171.515625 C 322.40625 171.9375 327.046875 173.015625 333.375 175.78125 Z M 310.265625 193.40625 C 311.765625 194.296875 313.359375 195.515625 314.90625 196.546875 C 325.171875 188.578125 335.296875 182.4375 346.40625 178.96875 C 344.859375 178.171875 343.5 177.46875 341.765625 176.625 C 335.109375 178.3125 323.71875 182.859375 310.265625 193.40625 Z M 310.265625 193.40625 "/></g><g clip-rule="nonzero" clip-path="url(#29bea5d5d1)"><path style=" stroke:none;fill-rule:nonzero;fill:#ffffff;fill-opacity:1;" d="M 18.75 201.75 L 26.25 201.75 C 30.046875 201.75 31.828125 199.78125 31.828125 197.015625 C 31.828125 194.765625 30.65625 193.265625 28.21875 192.796875 C 30.375 192.28125 31.359375 190.96875 31.359375 189.046875 C 31.359375 186.609375 29.578125 184.640625 25.78125 184.640625 L 18.796875 184.640625 L 18.796875 201.75 Z M 25.265625 194.484375 C 26.671875 194.484375 27.65625 195.1875 27.65625 196.59375 C 27.65625 198.09375 26.71875 198.703125 25.265625 198.703125 L 22.828125 198.703125 L 22.828125 194.4375 L 25.265625 194.4375 Z M 24.796875 187.640625 C 26.203125 187.640625 27.1875 188.25 27.1875 189.65625 C 27.1875 191.0625 26.25 191.671875 24.796875 191.671875 L 22.828125 191.671875 L 22.828125 187.640625 Z M 46.96875 184.59375 L 42.75 184.59375 L 36.328125 201.75 L 40.59375 201.75 L 41.765625 198.1875 L 47.953125 198.1875 L 49.125 201.75 L 53.4375 201.75 Z M 44.859375 188.71875 L 46.875 195.046875 L 42.75 195.046875 Z M 74.8125 184.59375 L 70.921875 184.59375 L 70.921875 196.078125 L 63.609375 184.59375 L 59.25 184.59375 L 59.25 201.75 L 63.140625 201.75 L 63.140625 190.3125 L 70.453125 201.75 L 74.8125 201.75 Z M 92.765625 201.75 L 87.140625 193.03125 L 87.140625 201.75 L 82.96875 201.75 L 82.96875 184.59375 L 87.140625 184.59375 L 87.140625 192.84375 L 92.484375 184.59375 L 97.125 184.59375 L 91.5 192.84375 L 97.640625 201.75 Z M 112.40625 193.171875 C 112.40625 196.59375 114.46875 198.703125 117.140625 198.703125 C 119.8125 198.703125 121.875 196.59375 121.875 193.171875 C 121.875 189.75 119.8125 187.640625 117.140625 187.640625 C 114.46875 187.640625 112.40625 189.75 112.40625 193.171875 Z M 108 193.171875 C 108.046875 188.15625 111.5625 184.21875 117.140625 184.21875 C 122.71875 184.21875 126.234375 188.15625 126.28125 193.171875 C 126.234375 198.1875 122.71875 202.125 117.140625 202.125 C 111.5625 202.125 108.046875 198.1875 108 193.171875 Z M 132 201.75 L 136.171875 201.75 L 136.171875 195 L 141.609375 195 L 141.609375 191.71875 L 136.171875 191.71875 L 136.171875 187.875 L 142.734375 187.875 L 143.484375 184.59375 L 132 184.59375 Z M 162.9375 184.59375 L 158.71875 184.59375 L 152.296875 201.75 L 156.5625 201.75 L 157.734375 198.1875 L 163.921875 198.1875 L 165.09375 201.75 L 169.40625 201.75 Z M 160.828125 188.71875 L 162.84375 195.046875 L 158.71875 195.046875 Z M 194.15625 184.59375 L 189.28125 184.59375 L 184.828125 193.875 L 180.375 184.59375 L 175.5 184.59375 L 175.5 201.75 L 179.25 201.75 L 179.25 190.265625 L 184.78125 201.75 L 190.3125 190.265625 L 190.3125 201.75 L 194.203125 201.75 Z M 202.265625 201.75 L 213.984375 201.75 L 213.984375 198.46875 L 206.4375 198.46875 L 206.4375 194.625 L 212.390625 194.625 L 212.390625 191.4375 L 206.4375 191.4375 L 206.4375 187.875 L 213.328125 187.875 L 214.078125 184.59375 L 202.265625 184.59375 Z M 229.875 201.75 L 234.421875 201.75 L 230.15625 194.484375 C 232.5 193.828125 233.625 192.1875 233.625 189.796875 C 233.625 186.703125 231.75 184.640625 227.53125 184.640625 L 220.921875 184.640625 L 220.921875 201.796875 L 225 201.796875 L 225 195.046875 L 226.125 195.046875 Z M 226.734375 187.78125 C 228.46875 187.78125 229.359375 188.53125 229.359375 189.984375 C 229.359375 191.4375 228.46875 192.1875 226.734375 192.1875 L 224.953125 192.1875 L 224.953125 187.78125 Z M 240.65625 201.75 L 244.828125 201.75 L 244.828125 184.640625 L 240.65625 184.640625 Z M 265.359375 197.15625 C 263.765625 198.28125 262.359375 198.65625 260.90625 198.65625 C 257.71875 198.65625 255.46875 196.453125 255.46875 193.171875 C 255.46875 189.890625 257.671875 187.6875 260.765625 187.6875 C 262.171875 187.6875 263.578125 188.0625 265.125 189.1875 L 265.125 185.296875 C 263.71875 184.5 262.078125 184.171875 260.25 184.171875 C 254.578125 184.171875 251.015625 188.109375 250.96875 193.125 C 251.015625 198.1875 254.484375 202.078125 260.25 202.078125 C 262.171875 202.078125 263.8125 201.75 265.3125 200.953125 L 265.3125 197.15625 Z M 280.640625 184.59375 L 276.421875 184.59375 L 270 201.75 L 274.265625 201.75 L 275.4375 198.1875 L 281.625 198.1875 L 282.796875 201.75 L 287.109375 201.75 Z M 278.53125 188.71875 L 280.546875 195.046875 L 276.421875 195.046875 Z M 278.53125 188.71875 "/></g></g></svg>