<svg xmlns="http://www.w3.org/2000/svg" xmlns:xlink="http://www.w3.org/1999/xlink" width="500" zoomAndPan="magnify" viewBox="0 0 375 374.999991" height="500" preserveAspectRatio="xMidYMid meet" version="1.2"><defs><clipPath id="18dcbf0097"><path d="M 309 180 L 325.558594 180 L 325.558594 201 L 309 201 Z M 309 180 "/></clipPath><clipPath id="8b08678ba0"><path d="M 49.558594 159.566406 L 101 159.566406 L 101 215.066406 L 49.558594 215.066406 Z M 49.558594 159.566406 "/></clipPath></defs><g id="619371e5ca"><path style=" stroke:none;fill-rule:nonzero;fill:#ffffff;fill-opacity:1;" d="M 130.589844 190.199219 C 131.316406 189.890625 131.925781 189.433594 132.414062 188.816406 C 133.035156 187.972656 133.332031 187.027344 133.296875 185.984375 C 133.296875 182.4375 130.566406 180.640625 125.183594 180.640625 L 116.042969 180.640625 L 116.042969 200.949219 L 125.574219 200.949219 C 128.3125 200.949219 130.429688 200.4375 131.851562 199.429688 C 133.273438 198.417969 134.0625 196.886719 134.0625 194.929688 C 134.074219 192.753906 132.902344 191.164062 130.589844 190.199219 Z M 128.863281 188.199219 C 128.136719 188.660156 126.964844 188.894531 125.382812 188.894531 L 119.335938 188.894531 L 119.335938 183.550781 L 125.046875 183.550781 C 126.785156 183.550781 128.054688 183.765625 128.824219 184.191406 C 129.175781 184.375 129.449219 184.640625 129.644531 184.988281 C 129.839844 185.335938 129.921875 185.707031 129.894531 186.101562 C 129.894531 187.066406 129.554688 187.765625 128.863281 188.199219 Z M 119.335938 191.804688 L 125.519531 191.804688 C 127.269531 191.804688 128.582031 192.078125 129.402344 192.613281 C 130.226562 193.152344 130.597656 193.90625 130.597656 194.988281 C 130.597656 196.070312 130.222656 196.824219 129.449219 197.292969 C 128.675781 197.761719 127.28125 198.035156 125.417969 198.035156 L 119.335938 198.035156 Z M 119.335938 191.804688 "/><path style=" stroke:none;fill-rule:nonzero;fill:#ffffff;fill-opacity:1;" d="M 147.707031 180.636719 L 144.363281 180.636719 L 144.363281 200.945312 L 160.726562 200.945312 L 160.726562 197.953125 L 147.707031 197.953125 Z M 147.707031 180.636719 "/><path style=" stroke:none;fill-rule:nonzero;fill:#ffffff;fill-opacity:1;" d="M 184.105469 192.808594 C 184.105469 194.722656 183.609375 196.152344 182.628906 197.054688 C 181.652344 197.957031 180.078125 198.425781 177.976562 198.425781 C 175.875 198.425781 174.3125 197.964844 173.324219 197.054688 C 172.339844 196.144531 171.847656 194.722656 171.847656 192.808594 L 171.847656 180.640625 L 168.503906 180.640625 L 168.503906 192.726562 C 168.503906 198.511719 171.691406 201.445312 177.976562 201.445312 C 184.261719 201.445312 187.453125 198.511719 187.453125 192.726562 L 187.453125 180.640625 L 184.105469 180.640625 Z M 184.105469 192.808594 "/><path style=" stroke:none;fill-rule:nonzero;fill:#ffffff;fill-opacity:1;" d="M 201.773438 191.96875 L 214.179688 191.96875 L 214.179688 188.976562 L 201.773438 188.976562 L 201.773438 183.628906 L 214.816406 183.628906 L 214.816406 180.636719 L 198.429688 180.636719 L 198.429688 200.945312 L 215.402344 200.945312 L 215.402344 197.953125 L 201.773438 197.953125 Z M 201.773438 191.96875 "/><path style=" stroke:none;fill-rule:nonzero;fill:#ffffff;fill-opacity:1;" d="M 291.0625 196.242188 L 285.753906 180.65625 L 282.378906 180.65625 L 277.09375 196.191406 L 272.074219 180.542969 L 268.300781 180.542969 L 275.316406 200.851562 L 278.691406 200.851562 L 283.984375 185.242188 L 289.25 200.851562 L 292.730469 200.851562 L 299.75 180.542969 L 296.085938 180.542969 Z M 291.0625 196.242188 "/><g clip-rule="nonzero" clip-path="url(#18dcbf0097)"><path style=" stroke:none;fill-rule:nonzero;fill:#ffffff;fill-opacity:1;" d="M 312.765625 197.859375 L 312.765625 180.542969 L 309.417969 180.542969 L 309.417969 200.851562 L 325.308594 200.851562 L 325.308594 197.859375 Z M 312.765625 197.859375 "/></g><path style=" stroke:none;fill-rule:nonzero;fill:#ffffff;fill-opacity:1;" d="M 255.851562 181.304688 C 253.980469 180.425781 252.007812 180.007812 249.9375 180.046875 C 247.808594 180 245.792969 180.449219 243.890625 181.390625 C 242.1875 182.25 240.859375 183.503906 239.90625 185.152344 C 238.953125 186.878906 238.492188 188.726562 238.53125 190.695312 C 238.484375 192.730469 238.964844 194.628906 239.976562 196.398438 C 240.949219 198.03125 242.292969 199.261719 244.011719 200.085938 C 245.882812 200.96875 247.855469 201.390625 249.925781 201.347656 C 252.054688 201.394531 254.066406 200.945312 255.972656 200 C 257.671875 199.140625 258.996094 197.886719 259.945312 196.242188 C 260.898438 194.515625 261.359375 192.667969 261.320312 190.695312 C 261.367188 188.664062 260.882812 186.761719 259.871094 184.996094 C 258.902344 183.367188 257.5625 182.136719 255.851562 181.304688 Z M 257.871094 190.695312 C 257.871094 193.089844 257.171875 194.976562 255.78125 196.3125 C 254.390625 197.648438 252.425781 198.332031 249.9375 198.332031 C 247.449219 198.332031 245.453125 197.65625 244.082031 196.328125 C 242.710938 194.996094 241.988281 193.105469 241.988281 190.6875 C 241.988281 188.269531 242.695312 186.40625 244.082031 185.070312 C 245.46875 183.734375 247.441406 183.054688 249.925781 183.054688 C 252.410156 183.054688 254.410156 183.730469 255.785156 185.058594 C 257.160156 186.382812 257.871094 188.285156 257.871094 190.695312 Z M 257.871094 190.695312 "/><g clip-rule="nonzero" clip-path="url(#8b08678ba0)"><path style=" stroke:none;fill-rule:nonzero;fill:#ffffff;fill-opacity:1;" d="M 100.746094 168.316406 L 96.859375 168.316406 C 96.386719 167.070312 95.738281 165.917969 94.917969 164.859375 C 94.101562 163.800781 93.144531 162.882812 92.054688 162.105469 C 90.960938 161.324219 89.78125 160.722656 88.507812 160.289062 C 87.238281 159.859375 85.929688 159.621094 84.585938 159.574219 C 83.242188 159.523438 81.921875 159.671875 80.621094 160.011719 C 79.324219 160.351562 78.101562 160.871094 76.957031 161.570312 C 75.8125 162.269531 74.792969 163.117188 73.898438 164.113281 C 73.007812 165.109375 72.277344 166.214844 71.714844 167.425781 L 71.296875 168.316406 L 66.886719 168.316406 L 66.886719 171.285156 L 69.925781 171.285156 L 49.8125 214.382812 L 51.777344 214.679688 C 53.792969 214.953125 55.816406 215.082031 57.851562 215.070312 C 64.226562 215.070312 74.359375 213.882812 82.019531 207.5 C 88.359375 202.195312 91.738281 194.339844 92.066406 184.148438 C 93.078125 183.429688 93.972656 182.59375 94.753906 181.632812 C 95.53125 180.667969 96.167969 179.621094 96.660156 178.488281 C 97.148438 177.355469 97.476562 176.175781 97.644531 174.953125 C 97.808594 173.730469 97.804688 172.507812 97.636719 171.285156 L 100.742188 171.285156 Z M 84.132812 162.535156 C 85.113281 162.535156 86.074219 162.671875 87.019531 162.9375 C 87.964844 163.203125 88.855469 163.589844 89.691406 164.101562 C 90.527344 164.609375 91.28125 165.222656 91.945312 165.941406 C 92.609375 166.65625 93.167969 167.449219 93.613281 168.316406 L 91.683594 168.316406 C 90.246094 168.359375 88.863281 168.660156 87.539062 169.21875 C 86.210938 169.773438 85.03125 170.546875 83.996094 171.539062 C 80.515625 168.355469 76.773438 168.3125 76.34375 168.316406 L 74.621094 168.316406 C 75.066406 167.445312 75.625 166.652344 76.292969 165.9375 C 76.960938 165.21875 77.714844 164.605469 78.554688 164.09375 C 79.394531 163.585938 80.289062 163.199219 81.234375 162.933594 C 82.183594 162.667969 83.148438 162.535156 84.132812 162.535156 Z M 93.792969 177.582031 C 93.382812 178.46875 92.855469 179.285156 92.214844 180.027344 C 91.574219 180.769531 90.84375 181.414062 90.023438 181.953125 C 89.203125 182.496094 88.324219 182.917969 87.386719 183.21875 C 86.449219 183.515625 85.488281 183.683594 84.503906 183.71875 C 83.519531 183.757812 82.550781 183.65625 81.59375 183.425781 C 80.636719 183.195312 79.730469 182.839844 78.871094 182.355469 C 78.015625 181.875 77.238281 181.285156 76.546875 180.59375 C 75.851562 179.898438 75.269531 179.121094 74.789062 178.265625 L 73.3125 181.410156 C 73.949219 182.230469 74.667969 182.96875 75.476562 183.625 C 76.28125 184.28125 77.152344 184.835938 78.085938 185.292969 C 79.019531 185.75 79.996094 186.097656 81.011719 186.332031 C 82.023438 186.566406 83.054688 186.6875 84.09375 186.6875 C 85.78125 186.6875 87.410156 186.390625 88.984375 185.796875 C 88.386719 194.253906 85.398438 200.785156 80.105469 205.222656 C 75.816406 208.8125 70.519531 210.578125 65.710938 211.40625 C 74.726562 206.796875 79.460938 198.109375 81.890625 190.929688 C 80.898438 190.789062 79.921875 190.570312 78.964844 190.273438 C 75.675781 199.769531 70.328125 206.191406 63.011719 209.398438 C 60.292969 210.589844 57.449219 211.269531 54.480469 211.429688 L 70.859375 176.34375 L 73.226562 171.269531 L 76.394531 171.269531 C 76.535156 171.269531 79.957031 171.253906 82.878906 174.644531 L 84.039062 175.992188 L 85.171875 174.621094 C 87.953125 171.25 91.492188 171.253906 91.625 171.269531 L 94.613281 171.269531 C 95.011719 173.460938 94.738281 175.5625 93.792969 177.582031 Z M 93.792969 177.582031 "/></g></g></svg>