<svg xmlns="http://www.w3.org/2000/svg" xmlns:xlink="http://www.w3.org/1999/xlink" width="500" zoomAndPan="magnify" viewBox="0 0 375 374.999991" height="500" preserveAspectRatio="xMidYMid meet" version="1.2"><g id="03da0b0bbd"><path style=" stroke:none;fill-rule:nonzero;fill:#ffffff;fill-opacity:1;" d="M 25.480469 217.824219 L 17.214844 217.824219 L 17.214844 192.714844 L 25.480469 192.714844 C 34.226562 192.714844 38.914062 196.988281 38.914062 205.253906 C 38.914062 213.449219 35.019531 217.824219 25.480469 217.824219 Z M 24.882812 196.535156 L 22.171875 196.535156 L 22.171875 214.003906 L 24.824219 214.003906 C 31.652344 214.144531 33.851562 210.808594 33.851562 205.289062 C 33.851562 199.210938 30.691406 196.535156 24.882812 196.535156 "/><path style=" stroke:none;fill-rule:nonzero;fill:#ffffff;fill-opacity:1;" d="M 46.492188 207.234375 C 46.625 204.941406 47.75 202.820312 50.339844 202.820312 C 52.855469 202.820312 54.097656 204.695312 53.992188 207.234375 Z M 50.488281 199.871094 C 43.886719 199.871094 41.59375 204.558594 41.59375 208.96875 C 41.59375 214.214844 44.230469 218.136719 49.859375 218.3125 C 54.339844 218.347656 58.304688 216.992188 58.574219 212.09375 L 53.992188 212.09375 C 53.992188 214.074219 52.390625 215.359375 50.519531 215.359375 C 47.359375 215.359375 46.355469 213.03125 46.3125 210.183594 L 58.964844 210.148438 C 59.339844 204.941406 57.078125 199.871094 50.488281 199.871094 "/><path style=" stroke:none;fill-rule:nonzero;fill:#ffffff;fill-opacity:1;" d="M 79.285156 217.824219 L 74.554688 217.824219 L 74.523438 214.976562 C 73.730469 217.234375 71.527344 218.382812 68.832031 218.382812 C 65.628906 218.382812 62.605469 216.4375 62.574219 211.78125 L 62.574219 200.496094 L 67.367188 200.496094 L 67.367188 211.121094 C 67.335938 213.621094 68.308594 215.011719 70.660156 215.046875 C 72.785156 215.046875 74.523438 213.832031 74.523438 210.464844 L 74.523438 200.496094 L 79.285156 200.496094 L 79.285156 217.824219 "/><path style=" stroke:none;fill-rule:nonzero;fill:#ffffff;fill-opacity:1;" d="M 85.425781 200.566406 L 85.425781 197.820312 L 90.050781 195.390625 L 90.050781 200.566406 L 94.46875 200.566406 L 94.46875 203.933594 L 90.050781 203.933594 L 90.050781 212.304688 C 90.050781 214.003906 90.636719 214.976562 92.375 215.046875 C 93.03125 215.046875 93.632812 215.117188 94.5 214.875 L 94.5 217.859375 C 92.238281 218.171875 89.632812 218.761719 87.476562 217.617188 C 85.84375 216.75 85.425781 215.21875 85.425781 212.789062 L 85.425781 203.933594 L 81.710938 203.933594 L 81.710938 200.566406 L 85.425781 200.566406 "/><path style=" stroke:none;fill-rule:nonzero;fill:#ffffff;fill-opacity:1;" d="M 112.453125 210.359375 C 113.21875 211.886719 113.1875 213.902344 112.246094 215.289062 C 110.613281 217.789062 107.0625 218.417969 104.324219 218.347656 C 100.429688 218.101562 96.96875 217.097656 97.136719 212.441406 L 101.867188 212.441406 C 101.824219 214.457031 103.082031 215.1875 104.878906 215.253906 C 106.613281 215.253906 108.351562 214.664062 108.351562 213.066406 C 108.351562 211.78125 107.136719 211.226562 105.582031 210.878906 C 103.800781 210.496094 102.527344 210.324219 100.535156 209.523438 C 98.949219 208.761719 97.375 207.476562 97.375 205.046875 C 97.375 203.03125 98.949219 201.503906 101 200.667969 C 102.375 200.078125 104.082031 199.90625 105.550781 199.90625 C 108.84375 199.90625 112.425781 201.050781 112.214844 205.21875 L 107.765625 205.21875 C 107.765625 204.59375 107.632812 203.898438 107.109375 203.480469 C 106.136719 202.613281 103.140625 202.507812 102.210938 203.933594 C 101.164062 206.363281 104.398438 206.539062 107.976562 207.511719 C 110.238281 208.03125 111.765625 208.96875 112.453125 210.359375 "/><path style=" stroke:none;fill-rule:nonzero;fill:#ffffff;fill-opacity:1;" d="M 124.300781 199.835938 C 128.089844 199.835938 132.011719 201.570312 132.011719 206.332031 L 127.355469 206.292969 C 127.355469 204.070312 126.140625 202.714844 123.851562 202.820312 C 123.25 202.855469 122.621094 203.0625 122.113281 203.34375 C 120.675781 204.175781 120.226562 206.503906 120.226562 208.832031 C 120.226562 211.296875 120.824219 213.691406 121.902344 214.558594 C 122.621094 215.253906 123.910156 215.464844 125.019531 215.253906 C 126.859375 214.945312 127.414062 213.136719 127.460938 211.574219 L 132.011719 211.539062 C 132.070312 216.503906 128.011719 218.382812 123.773438 218.3125 C 118.113281 218.101562 115.507812 214.421875 115.507812 208.96875 C 115.507812 203.449219 118.667969 199.835938 124.300781 199.835938 "/><path style=" stroke:none;fill-rule:nonzero;fill:#ffffff;fill-opacity:1;" d="M 135.679688 192.75 L 140.472656 192.75 L 140.472656 203.238281 C 141.730469 201.015625 143.601562 200.042969 146.132812 200.042969 C 149.335938 200.042969 152.363281 202.441406 152.363281 205.878906 L 152.363281 217.824219 L 147.628906 217.824219 L 147.628906 207.195312 C 147.628906 204.835938 146.625 203.273438 144.367188 203.273438 C 142.253906 203.273438 140.441406 204.660156 140.441406 207.859375 L 140.441406 217.824219 L 135.679688 217.824219 L 135.679688 192.75 "/><path style=" stroke:none;fill-rule:nonzero;fill:#ffffff;fill-opacity:1;" d="M 160.972656 207.234375 C 161.105469 204.941406 162.214844 202.820312 164.820312 202.820312 C 167.320312 202.820312 168.578125 204.695312 168.472656 207.234375 Z M 164.96875 199.871094 C 158.367188 199.871094 156.074219 204.558594 156.074219 208.96875 C 156.074219 214.214844 158.710938 218.136719 164.339844 218.3125 C 168.820312 218.347656 172.789062 216.992188 173.058594 212.09375 L 168.472656 212.09375 C 168.472656 214.074219 166.871094 215.359375 165 215.359375 C 161.839844 215.359375 160.835938 213.03125 160.792969 210.183594 L 173.445312 210.148438 C 173.820312 204.941406 171.558594 199.871094 164.96875 199.871094 "/><path style=" stroke:none;fill-rule:nonzero;fill:#ffffff;fill-opacity:1;" d="M 202.992188 217.097656 C 201.375 217.617188 199.277344 217.824219 197.03125 217.824219 L 187.957031 217.824219 L 187.957031 192.785156 L 197.613281 192.785156 C 201.925781 192.785156 206.433594 194.140625 206.613281 198.96875 C 206.71875 202.023438 204.636719 203.96875 202.03125 204.835938 C 204.039062 205.355469 205.671875 205.945312 206.78125 207.824219 C 207.753906 209.488281 207.828125 211.714844 207.035156 213.554688 C 206.195312 215.289062 204.90625 216.4375 202.992188 217.097656 Z M 197.613281 196.535156 L 192.71875 196.535156 L 192.71875 203.03125 L 197.691406 203.03125 C 200.296875 203.03125 201.644531 201.953125 201.644531 199.835938 C 201.644531 197.855469 200.085938 196.535156 197.613281 196.535156 Z M 198.109375 206.78125 L 192.71875 206.746094 L 192.71875 214.109375 L 197.929688 214.109375 C 201.402344 214.109375 202.511719 212.40625 202.511719 210.289062 C 202.511719 208.65625 201.328125 206.746094 198.109375 206.78125 "/><path style=" stroke:none;fill-rule:nonzero;fill:#ffffff;fill-opacity:1;" d="M 218.144531 215.324219 C 216.378906 215.1875 215.328125 214.316406 215.328125 212.652344 C 215.359375 209.003906 219.988281 209.386719 222.382812 209.386719 C 222.488281 212.269531 222.25 215.253906 218.144531 215.324219 Z M 226.933594 205.253906 C 226.933594 201.710938 223.117188 199.9375 218.699219 199.972656 C 214.492188 200.042969 211.4375 201.398438 211.375 205.460938 L 215.988281 205.460938 C 215.882812 203.585938 217.171875 202.613281 218.878906 202.578125 C 221.441406 202.578125 222.59375 203.757812 222.351562 206.675781 C 219.808594 206.816406 216.40625 206.640625 213.878906 207.824219 C 212.035156 208.691406 210.613281 210.324219 210.613281 212.929688 C 210.613281 216.261719 212.933594 218.277344 216.332031 218.382812 C 218.773438 218.625 221.542969 217.546875 222.621094 215.289062 L 222.800781 217.824219 L 226.933594 217.824219 C 226.933594 213.621094 226.933594 209.488281 226.933594 205.253906 "/><path style=" stroke:none;fill-rule:nonzero;fill:#ffffff;fill-opacity:1;" d="M 231.546875 200.496094 L 236.339844 200.496094 L 236.339844 203.273438 C 237.597656 201.015625 239.886719 200.042969 242.464844 200.042969 C 245.339844 200.042969 248.289062 201.710938 248.289062 205.878906 L 248.289062 217.824219 L 243.496094 217.824219 L 243.496094 207.195312 C 243.527344 204.941406 242.417969 203.273438 240.234375 203.273438 C 238.078125 203.273438 236.308594 204.660156 236.308594 207.859375 L 236.308594 217.824219 L 231.546875 217.824219 L 231.546875 200.496094 "/><path style=" stroke:none;fill-rule:nonzero;fill:#ffffff;fill-opacity:1;" d="M 265.0625 217.824219 L 257.769531 207.890625 L 264.371094 200.496094 L 270.003906 200.496094 L 263.160156 207.71875 L 271.214844 217.824219 Z M 252.917969 192.75 L 257.632812 192.75 L 257.632812 217.824219 L 252.917969 217.824219 Z M 252.917969 192.75 "/><path style=" stroke:none;fill-rule:nonzero;fill:#ffffff;fill-opacity:1;" d="M 296.628906 156.550781 L 357.617188 156.550781 L 357.617188 217.789062 L 296.628906 217.789062 Z M 333.6875 171.054688 L 309.863281 203.03125 L 320.632812 203.03125 L 344.546875 171.054688 Z M 305.117188 209.308594 L 349.128906 209.308594 L 349.128906 165.035156 L 305.117188 165.035156 Z M 305.117188 209.308594 "/></g></svg>