<svg xmlns="http://www.w3.org/2000/svg" xmlns:xlink="http://www.w3.org/1999/xlink" width="500" zoomAndPan="magnify" viewBox="0 0 375 374.999991" height="500" preserveAspectRatio="xMidYMid meet" version="1.2"><defs><clipPath id="08cdc0358b"><path d="M 34.222656 169 L 340.972656 169 L 340.972656 206 L 34.222656 206 Z M 34.222656 169 "/></clipPath></defs><g id="28134c438c"><g clip-rule="nonzero" clip-path="url(#08cdc0358b)"><path style=" stroke:none;fill-rule:nonzero;fill:#ffffff;fill-opacity:1;" d="M 34.253906 204.992188 L 104.285156 204.992188 L 104.285156 194.90625 L 34.253906 194.90625 Z M 34.253906 180.039062 L 48.265625 180.039062 L 48.265625 169.964844 L 34.253906 169.964844 Z M 62.269531 180.039062 L 76.28125 180.039062 L 76.28125 169.964844 L 62.265625 169.964844 Z M 90.285156 180.039062 L 104.285156 180.039062 L 104.285156 169.964844 L 90.285156 169.964844 Z M 68.0625 192.515625 L 34.253906 192.515625 L 34.253906 182.441406 L 68.0625 182.441406 Z M 104.285156 192.515625 L 70.476562 192.515625 L 70.476562 182.441406 L 104.285156 182.441406 Z M 157.261719 203.8125 C 161.894531 203.65625 162.917969 202.777344 162.917969 200.878906 L 162.917969 174.242188 C 162.917969 172.34375 161.894531 171.421875 157.261719 171.261719 L 157.261719 170.132812 L 173.460938 170.132812 L 173.460938 171.261719 C 168.828125 171.421875 167.804688 172.34375 167.804688 174.242188 L 167.804688 200.878906 C 167.804688 202.777344 168.828125 203.65625 173.460938 203.8125 L 173.460938 204.992188 L 157.261719 204.992188 Z M 184.359375 203.8125 C 188.933594 203.65625 190.320312 202.777344 190.320312 200.878906 L 190.320312 171.570312 L 187.75 171.570312 C 183.433594 171.570312 181.21875 171.601562 178.703125 177.925781 L 177.570312 177.820312 L 177.875 170.132812 L 207.589844 170.132812 L 207.953125 177.820312 L 206.824219 177.925781 C 204.511719 172.007812 202.246094 171.570312 197.773438 171.570312 L 195.148438 171.570312 L 195.148438 200.878906 C 195.148438 202.777344 196.542969 203.65625 201.117188 203.8125 L 201.117188 204.992188 L 184.355469 204.992188 L 184.355469 203.8125 Z M 276.660156 203.8125 C 281.125 203.65625 282.265625 202.777344 282.265625 200.878906 L 282.265625 174.242188 C 282.265625 172.34375 281.125 171.421875 276.660156 171.261719 L 276.660156 170.132812 L 304.941406 170.132812 L 305.085938 177.808594 L 303.957031 177.859375 C 301.800781 171.632812 300.050781 171.625 294.1875 171.625 L 287.144531 171.625 L 287.144531 186.175781 L 290.28125 186.175781 C 294.34375 186.175781 296.144531 185.25 297.484375 179.742188 L 298.507812 179.742188 L 298.507812 194.042969 L 297.484375 194.042969 C 296.144531 188.535156 294.34375 187.660156 290.28125 187.660156 L 287.144531 187.660156 L 287.144531 203.21875 L 294.1875 203.21875 C 301.082031 203.21875 303.394531 203.398438 305.65625 196.816406 L 306.789062 196.875 L 306.53125 204.992188 L 276.660156 204.992188 Z M 312.03125 203.8125 C 316.503906 203.65625 317.636719 202.777344 317.636719 200.878906 L 317.636719 174.242188 C 317.636719 172.34375 316.503906 171.421875 312.03125 171.261719 L 312.03125 170.132812 L 327.867188 170.132812 L 327.867188 171.261719 C 323.292969 171.421875 322.515625 172.296875 322.515625 174.242188 L 322.515625 203.214844 L 327.660156 203.214844 C 334.445312 203.214844 336.867188 201.1875 339.335938 193.679688 L 340.464844 193.730469 L 340.054688 204.992188 L 312.03125 204.992188 Z M 254.84375 203.273438 L 251.039062 203.273438 L 251.039062 171.570312 L 254.796875 171.570312 C 264.152344 171.570312 268.78125 175.632812 268.78125 187.257812 C 268.78125 198.667969 265.792969 203.273438 254.84375 203.273438 M 255.355469 170.132812 L 241.402344 170.132812 L 241.402344 171.3125 C 245.144531 171.558594 246.160156 172.476562 246.160156 174.242188 L 246.160156 200.878906 C 246.160156 202.644531 245.144531 203.519531 241.402344 203.753906 L 241.402344 204.992188 L 255.828125 204.992188 C 268.78125 204.992188 274.378906 196.296875 274.378906 186.941406 C 274.378906 177.175781 267.957031 170.132812 255.355469 170.132812 M 215.667969 190.285156 L 221.324219 175.738281 L 221.53125 175.738281 L 226.566406 190.285156 Z M 234.945312 199.128906 L 224.046875 169.304688 L 222.308594 169.304688 L 211.605469 196.089844 C 209.550781 201.183594 208.113281 203.082031 204.660156 203.910156 L 204.660156 204.992188 L 216.238281 204.992188 L 216.238281 203.910156 C 211.65625 203.140625 211.144531 202.011719 213.308594 196.40625 L 215.109375 191.722656 L 227.085938 191.722656 L 229.859375 199.75 C 230.882812 202.628906 230.164062 203.65625 225.484375 203.910156 L 225.484375 204.992188 L 239.976562 204.992188 L 239.976562 203.75 C 236.878906 203.179688 236.027344 202.035156 234.945312 199.128906 Z M 141.226562 170.703125 C 135.15625 170.703125 129.503906 176.042969 129.503906 187.769531 C 129.503906 198.921875 136.289062 203.546875 142.199219 203.546875 C 144.03125 203.527344 145.746094 203.078125 147.351562 202.199219 C 148.945312 201.324219 150.398438 200.128906 151.433594 198.617188 C 152.15625 197.5625 152.679688 196.488281 153.140625 195.191406 L 154.28125 195.539062 C 153.703125 197.394531 152.902344 199.210938 151.71875 200.769531 C 150.574219 202.296875 149.152344 203.496094 147.460938 204.378906 C 146.984375 204.621094 146.492188 204.832031 145.988281 205.015625 C 145.433594 205.21875 144.863281 205.382812 144.28125 205.5 C 143.140625 205.742188 141.984375 205.863281 140.816406 205.867188 C 130.890625 205.867188 123.894531 198.71875 123.894531 187.976562 C 123.894531 177.332031 131.765625 169.308594 141.789062 169.308594 C 145.4375 169.308594 148.367188 170.289062 150.53125 171.46875 L 152.332031 171.445312 L 152.703125 174.8125 L 153.40625 180.667969 L 152.332031 180.667969 C 149.964844 174.292969 146.417969 170.703125 141.226562 170.703125 "/></g></g></svg>