<svg xmlns="http://www.w3.org/2000/svg" xmlns:xlink="http://www.w3.org/1999/xlink" width="500" zoomAndPan="magnify" viewBox="0 0 375 374.999991" height="500" preserveAspectRatio="xMidYMid meet" version="1.2"><defs><clipPath id="4a9486a222"><path d="M 79.621094 141 L 295.621094 141 L 295.621094 234 L 79.621094 234 Z M 79.621094 141 "/></clipPath></defs><g id="e077a0f072"><g clip-rule="nonzero" clip-path="url(#4a9486a222)"><path style=" stroke:none;fill-rule:nonzero;fill:#ffffff;fill-opacity:1;" d="M 97.269531 162.902344 L 110.320312 162.902344 L 110.320312 184.28125 C 105.96875 185.160156 102.636719 185.609375 98.976562 185.609375 C 84.664062 185.609375 79.621094 177.410156 79.621094 163.917969 C 79.621094 149.410156 86.617188 141.210938 100.558594 141.210938 C 102.320312 141.210938 105.65625 141.335938 109.816406 141.964844 L 109.816406 155.648438 L 106.796875 155.648438 L 105.089844 150.414062 C 103.445312 145.445312 101.492188 142.980469 98.402344 142.980469 C 93.042969 142.980469 90.203125 150.226562 90.203125 163.792969 C 90.203125 177.410156 91.335938 183.839844 98.328125 183.839844 C 99.28125 183.839844 100.40625 183.714844 101.484375 183.40625 L 101.484375 167.503906 L 97.269531 164.601562 Z M 110.070312 220.273438 C 110.070312 228.851562 104.21875 233.769531 93.871094 233.769531 C 91.039062 233.769531 86.875 233.335938 82.964844 232.699219 L 82.964844 215.933594 L 85.996094 215.933594 L 87.253906 219.898438 C 90.085938 229.039062 92.109375 232.0625 95.703125 232.0625 C 99.488281 232.0625 102.195312 228.726562 102.195312 224.3125 C 102.195312 220.722656 100.496094 218.199219 96.847656 216.238281 L 90.535156 212.839844 C 85.671875 210.261719 83.027344 206.222656 83.027344 201.308594 C 83.027344 193.863281 89.140625 189.386719 99.175781 189.386719 C 101.441406 189.386719 104.089844 189.585938 108.308594 190.152344 L 108.308594 203.824219 L 105.277344 203.824219 L 103.589844 198.601562 C 101.878906 193.046875 100.054688 191.03125 96.71875 191.03125 C 92.988281 191.03125 90.785156 193.421875 90.785156 196.894531 C 90.785156 199.976562 92.496094 202.1875 95.828125 204.074219 L 102.195312 207.664062 C 107.550781 210.691406 110.070312 214.726562 110.070312 220.273438 Z M 137.945312 230.183594 L 139.207031 232.078125 L 139.207031 233.03125 L 129.570312 233.03125 L 129.117188 229.371094 C 128.113281 232.140625 125.460938 233.785156 122.054688 233.785156 C 117.011719 233.785156 113.855469 230.632812 113.855469 225.460938 C 113.855469 220.417969 116.6875 217.074219 125.386719 213.675781 L 129.109375 212.230469 L 129.109375 207.507812 C 129.109375 203.347656 128.347656 201.648438 126.015625 201.648438 C 124.128906 201.648438 123.058594 202.65625 121.226562 207.25 L 119.148438 212.398438 L 116.316406 212.398438 L 116.316406 202.117188 C 120.039062 200.984375 123.761719 200.226562 126.96875 200.226562 C 134.089844 200.226562 137.945312 203.625 137.945312 209.8125 Z M 141.585938 168.835938 C 141.585938 179.550781 135.859375 185.609375 128.472656 185.609375 C 121.101562 185.609375 115.375 179.550781 115.375 168.835938 C 115.375 158.109375 121.101562 152.0625 128.488281 152.0625 C 135.859375 152.0625 141.585938 158.109375 141.585938 168.835938 Z M 129.117188 224.886719 L 129.117188 213.980469 L 127.921875 214.484375 C 124.203125 216.003906 122.808594 219.402344 122.808594 224.382812 C 122.808594 228.105469 123.699219 230.246094 125.765625 230.246094 C 127.84375 230.246094 129.117188 228.222656 129.117188 224.886719 Z M 132.328125 168.835938 C 132.328125 156.726562 131.320312 153.515625 128.488281 153.515625 C 125.65625 153.515625 124.640625 156.726562 124.640625 168.835938 C 124.640625 180.9375 125.65625 184.152344 128.488281 184.152344 C 131.320312 184.152344 132.328125 180.9375 132.328125 168.835938 Z M 163.980469 225.191406 L 165.113281 225.769531 C 163.101562 231.574219 160.519531 233.769531 155.53125 233.769531 C 147.402344 233.769531 142.863281 227.664062 142.863281 217.003906 C 142.863281 206.351562 148.160156 200.226562 156.796875 200.226562 C 159.117188 200.226562 162.21875 200.605469 164.863281 201.667969 L 164.863281 212.390625 L 161.90625 212.390625 L 160.71875 208.355469 C 159.136719 202.996094 158.265625 201.613281 156.679688 201.613281 C 154.15625 201.613281 152.140625 204.894531 152.140625 217.378906 C 152.140625 227.394531 153.652344 231.054688 157.492188 231.054688 C 160.070312 231.0625 162.273438 229.425781 163.980469 225.191406 Z M 156.976562 184.847656 L 145.625 184.847656 L 145.625 183.910156 L 146.890625 182.015625 L 146.890625 146.828125 L 145.625 144.941406 L 145.625 143.988281 L 155.71875 143.234375 L 155.71875 182.003906 L 156.976562 183.902344 Z M 172.496094 185.609375 C 165.554688 185.609375 161.390625 179.300781 161.390625 168.519531 C 161.390625 157.804688 165.734375 152.070312 172.421875 152.070312 C 175.828125 152.070312 177.71875 153.390625 178.535156 156.035156 L 178.535156 146.828125 L 177.269531 144.941406 L 177.269531 143.988281 L 187.363281 143.234375 L 187.363281 182.003906 L 188.621094 183.902344 L 188.621094 184.835938 L 179.667969 184.835938 L 178.976562 180.046875 C 177.976562 184.152344 176.089844 185.609375 172.496094 185.609375 Z M 194.617188 230.183594 L 195.875 232.078125 L 195.875 233.03125 L 184.53125 233.03125 L 184.53125 232.078125 L 185.789062 230.183594 L 185.789062 207.484375 C 185.789062 204.777344 184.972656 203.140625 183.011719 203.140625 C 180.675781 203.140625 178.976562 205.101562 178.976562 208.9375 L 178.976562 230.183594 L 180.242188 232.078125 L 180.242188 233.03125 L 168.890625 233.03125 L 168.890625 232.078125 L 170.148438 230.183594 L 170.148438 194.996094 L 168.890625 193.109375 L 168.890625 192.164062 L 178.976562 191.410156 L 178.976562 204.453125 C 180.117188 201.746094 182.699219 200.238281 186.347656 200.238281 C 191.527344 200.238281 194.609375 203.519531 194.609375 209.882812 L 194.609375 230.183594 Z M 170.667969 168.636719 C 170.667969 179.992188 171.675781 183.453125 174.453125 183.453125 C 177.914062 183.453125 178.542969 178.472656 178.542969 168.511719 C 178.542969 158.867188 177.851562 154.074219 174.507812 154.074219 C 171.675781 154.074219 170.667969 157.480469 170.667969 168.636719 Z M 233.964844 182.003906 L 235.226562 183.902344 L 235.226562 184.835938 L 223.878906 184.835938 L 223.878906 183.902344 L 225.136719 182.003906 L 225.136719 158.613281 C 225.136719 156.347656 224.382812 154.957031 222.613281 154.957031 C 220.417969 154.957031 218.648438 156.925781 218.648438 160.691406 L 218.648438 182.003906 L 219.90625 183.902344 L 219.90625 184.835938 L 208.5625 184.835938 L 208.5625 183.902344 L 209.820312 182.003906 L 209.820312 158.613281 C 209.820312 156.347656 209.066406 154.957031 207.304688 154.957031 C 205.101562 154.957031 203.328125 156.925781 203.328125 160.691406 L 203.328125 182.003906 L 204.597656 183.902344 L 204.597656 184.835938 L 193.242188 184.835938 L 193.242188 183.902344 L 194.5 182.003906 L 194.5 156.347656 L 193.242188 154.828125 L 193.242188 153.894531 L 202.324219 152.816406 L 203.078125 152.816406 L 203.328125 156.347656 C 204.398438 153.570312 207.050781 152.0625 210.648438 152.0625 C 214.484375 152.0625 217.011719 153.949219 218.144531 157.355469 C 219.089844 154.074219 222.054688 152.0625 225.839844 152.0625 C 230.8125 152.0625 233.964844 155.34375 233.964844 161.699219 Z M 222.179688 223.753906 C 222.179688 229.230469 218.648438 233.769531 210.144531 233.769531 C 207.941406 233.769531 204.972656 233.515625 200.371094 232.699219 L 200.371094 220.976562 L 202.953125 220.976562 L 203.769531 223.503906 C 205.785156 229.929688 207.734375 232.332031 210.828125 232.332031 C 213.730469 232.332031 215.617188 230.246094 215.617188 227.027344 C 215.617188 224.382812 214.296875 222.558594 211.152344 220.851562 L 205.730469 217.945312 C 202.269531 216.058594 200.371094 213.101562 200.371094 209.441406 C 200.371094 203.707031 204.859375 200.238281 212.28125 200.238281 C 214.433594 200.238281 217.199219 200.542969 220.230469 201.179688 L 220.230469 210.386719 L 217.648438 210.386719 L 216.320312 207.03125 C 214.808594 202.996094 213.363281 201.683594 210.96875 201.683594 C 208.390625 201.683594 206.871094 203.195312 206.871094 205.71875 C 206.871094 207.859375 208.140625 209.308594 211.222656 211.070312 L 216.570312 214.097656 C 220.222656 216.183594 222.179688 219.140625 222.179688 223.753906 Z M 262.976562 182.003906 L 264.234375 183.902344 L 264.234375 184.835938 L 254.589844 184.835938 L 254.15625 181.179688 C 253.152344 183.957031 250.5 185.59375 247.089844 185.59375 C 242.046875 185.59375 238.902344 182.445312 238.902344 177.269531 C 238.902344 172.226562 241.734375 168.890625 250.4375 165.484375 L 254.148438 164.042969 L 254.148438 159.316406 C 254.148438 155.152344 253.394531 153.453125 251.066406 153.453125 C 249.167969 153.453125 248.105469 154.46875 246.273438 159.0625 L 244.195312 164.234375 L 241.347656 164.234375 L 241.347656 153.964844 C 245.078125 152.824219 248.789062 152.070312 252 152.070312 C 259.121094 152.070312 262.976562 155.476562 262.976562 161.652344 Z M 254.148438 176.710938 L 254.148438 165.804688 L 252.953125 166.308594 C 249.238281 167.820312 247.855469 171.226562 247.855469 176.207031 C 247.855469 179.929688 248.738281 182.078125 250.8125 182.078125 C 252.878906 182.078125 254.148438 180.054688 254.148438 176.710938 Z M 295.375 183.902344 L 295.375 184.835938 L 284.019531 184.835938 L 284.019531 183.902344 L 285.289062 182.003906 L 285.289062 159.304688 C 285.289062 156.589844 284.472656 154.957031 282.511719 154.957031 C 280.171875 154.957031 278.476562 156.925781 278.476562 160.761719 L 278.476562 182.003906 L 279.734375 183.902344 L 279.734375 184.835938 L 268.386719 184.835938 L 268.386719 183.902344 L 269.648438 182.003906 L 269.648438 156.347656 L 268.386719 154.828125 L 268.386719 153.894531 L 277.46875 152.816406 L 278.222656 152.816406 L 278.476562 156.347656 C 279.542969 153.570312 282.132812 152.0625 285.847656 152.0625 C 291.015625 152.0625 294.097656 155.34375 294.097656 161.699219 L 294.097656 182.003906 Z M 295.375 183.902344 "/></g></g></svg>