<svg xmlns="http://www.w3.org/2000/svg" width="220" height="37" viewBox="0 0 220 37" xmlns:xlink="http://www.w3.org/1999/xlink">
 <path fill="#FFF" fill-rule="evenodd" d="M43.908.168c.286.22.54.484.787.75 1.978 2.126 3.95 4.261 5.928 6.39l20.53 22.104c.168.181.339.36.601.638.032-.29.066-.45.062-.612-.098-4.523-.203-9.052-.302-13.578l-.14-6.698c-.024-1.116-.05-2.233-.08-3.35-.022-.811-.094-1.63-.248-2.425-.218-1.13-.788-1.62-1.937-1.787-.541-.08-1.088-.108-1.631-.157-.158-.014-.33.014-.471-.04-.11-.041-.255-.182-.251-.274.007-.127.107-.31.219-.36.176-.08.395-.098.596-.098.932.005 1.866.032 2.8.037 1.432.004 2.864 0 4.297-.005.661-.002 1.321-.021 1.98-.036.091 0 .182-.004.274.003.29.017.63-.025.71.364.049.238-.195.362-.673.409-.359.035-.723.082-1.077.15-.828.168-1.35.674-1.462 1.5-.112.85-.187 1.713-.191 2.568-.037 6.748-.055 13.493-.077 20.24-.011 3.056-.015 6.113-.034 9.17-.003.498-.043.995-.11 1.487-.059.423-.319.559-.678.336-.365-.225-.705-.501-1.01-.803-1.907-1.88-3.817-3.762-5.697-5.67-7.11-7.21-13.958-14.668-20.736-22.19-.144-.16-.304-.306-.573-.577 0 .395-.005.634.001.871.18 6.653.353 13.305.55 19.958.045 1.557.158 3.117.278 4.673.033.42.172.842.317 1.245.248.687.743 1.13 1.476 1.269.425.081.853.135 1.282.189.225.025.457.021.682.032.273.017.613-.001.592.384-.018.353-.35.382-.623.376-1.388-.016-2.777-.05-4.166-.068-.773-.01-1.545-.01-2.318.003-1.16.017-2.322.05-3.483.073-.091.003-.183 0-.273-.01-.251-.028-.448-.125-.434-.415.01-.269.225-.311.434-.336.52-.061 1.042-.104 1.558-.183.787-.125 1.235-.613 1.423-1.37.286-1.154.288-2.332.306-3.507.015-.996.012-1.993.015-2.99.008-6.02.012-12.046.026-18.068.009-2.806.035-5.614.06-8.42.005-.312.042-.637.129-.935.13-.446.398-.537.762-.257zM84.22.167c.271.203.508.45.74.7 3.079 3.306 6.154 6.614 9.226 9.926 5.669 6.104 11.334 12.212 17.002 18.32.269.286.547.566.82.852l.123-.069c0-.239.006-.48-.001-.722-.08-3.734-.162-7.468-.244-11.202-.092-4.208-.176-8.42-.285-12.627-.017-.653-.103-1.312-.235-1.951-.24-1.136-.784-1.623-1.935-1.792-.54-.08-1.087-.109-1.63-.158-.16-.015-.339.023-.47-.04-.119-.057-.24-.208-.263-.336-.018-.088.112-.261.21-.296.21-.07.442-.101.665-.098.98.004 1.958.034 2.938.04 1.32.006 2.637.002 3.956-.006.73-.003 1.456-.026 2.184-.039.16-.002.336-.034.476.025.17.069.411.196.44.332.05.272-.208.365-.446.399-.449.065-.905.092-1.346.183-.769.158-1.285.64-1.39 1.407-.13.937-.208 1.89-.213 2.836-.038 7.04-.054 14.083-.077 21.124-.008 2.738-.015 5.477-.034 8.217-.002.431-.039.86-.095 1.286-.076.538-.334.66-.797.355-.341-.223-.656-.493-.945-.778-1.872-1.85-3.75-3.698-5.601-5.574-7.11-7.212-13.959-14.667-20.735-22.188-.163-.177-.331-.347-.588-.617 0 1.05-.018 1.932.003 2.812.084 3.372.178 6.742.27 10.114.085 3.101.155 6.203.255 9.301.042 1.287.057 2.584.374 3.843.082.327.199.653.347.954.23.467.61.798 1.132.906.554.114 1.118.184 1.681.263.178.025.364.011.545.025.251.02.547.023.533.375-.013.323-.296.361-.55.38-.205.015-.41.018-.615.011-1.411-.037-2.822-.102-4.233-.117-.863-.01-1.729.056-2.594.08-.818.02-1.638.025-2.458.037-.159.003-.319-.002-.477-.023-.227-.028-.418-.156-.36-.394.034-.131.211-.28.353-.321.212-.063.452-.039.678-.056 1.798-.13 2.365-.62 2.515-2.383.12-1.395.162-2.802.166-4.203.025-6.044.021-12.09.038-18.136.007-3.237.031-6.474.06-9.712 0-.334.04-.679.129-1.002.125-.452.389-.54.758-.263zm75.47.54c2.368.16 4.734.046 7.102-.03.362-.012.726-.009 1.092-.006.136.001.295-.02.4.044.14.083.324.233.326.357.005.116-.19.268-.328.345-.107.059-.269.018-.403.033-.43.043-.861.075-1.288.146-.85.137-1.435.608-1.574 1.47-.13.801-.235 1.617-.238 2.426-.015 7.337-.03 14.674.007 22.012.01 1.531.162 3.073.367 4.595.23 1.693.896 2.303 2.606 2.535.97.13 1.951.223 2.928.217 1.405-.012 2.82-.069 4.22-.217 1.366-.139 2.366-.896 2.914-2.168.25-.579.416-1.191.615-1.792.053-.149.047-.331.134-.45.08-.106.259-.217.379-.2.107.015.25.187.272.31.047.24.054.501.017.744-.205 1.408-.38 2.825-.661 4.22-.24 1.2-.605 1.48-1.834 1.477-2.823-.004-5.647-.058-8.467-.09-.297-.006-.594-.004-1.035-.004-2.88-.272-5.907-.104-8.933-.023-.227.005-.457.002-.683-.02-.221-.02-.4-.13-.407-.376-.007-.263.193-.331.41-.358.405-.053.81-.107 1.218-.152.612-.073 1.016-.423 1.173-.993.173-.627.344-1.273.384-1.92.108-1.739.195-3.48.204-5.223.033-5.774.04-11.548.033-17.32-.001-1.947-.054-3.896-.1-5.841-.008-.405-.065-.814-.14-1.212-.141-.753-.573-1.3-1.321-1.496-.611-.162-1.249-.215-1.878-.3-.287-.038-.633.04-.703-.361-.047-.251.236-.412.735-.414.82-.001 1.644-.022 2.458.034zm26.294-.021c.17.014.41.131.478.27.117.243-.138.336-.327.42-.08.038-.167.066-.249.105-.607.292-.802.593-.633 1.252.143.54.366 1.073.644 1.56 1.172 2.07 2.372 4.125 3.574 6.18 1.533 2.62 3.077 5.236 4.618 7.854.124.208.257.41.423.679.12-.183.198-.29.261-.402 2.518-4.407 5.038-8.814 7.546-13.228.297-.53.555-1.088.763-1.66.118-.329.122-.71.13-1.067.01-.578-.23-1-.83-1.174-.249-.071-.616-.128-.568-.473.052-.382.434-.321.717-.328.343-.013.686-.024 1.026.012 1.796.186 3.595.086 5.388.007.458-.02.914-.023 1.367-.02.158 0 .32.018.466.075.09.035.206.157.206.235-.006.115-.084.265-.181.327-.124.08-.296.118-.45.125-1.433.061-2.586.723-3.51 1.742-.805.89-1.57 1.83-2.231 2.826-2.63 3.972-5.047 8.07-7.382 12.22-.948 1.69-1.41 3.469-1.389 5.39.034 2.896.043 5.794.091 8.693.01.628.1 1.265.239 1.881.204.922.838 1.421 1.773 1.532.564.068 1.132.114 1.699.165.113.011.229.004.341.015.21.023.431.058.448.324.016.291-.205.384-.443.416-.202.027-.41.024-.614.023-1.092-.013-2.19.025-3.276-.055-2.234-.165-4.462.069-6.694.052-.225 0-.468.037-.676-.03-.163-.052-.369-.214-.403-.366-.064-.25.182-.33.393-.358.403-.058.81-.104 1.216-.152.692-.084 1.118-.501 1.33-1.117.15-.425.265-.875.29-1.318.082-1.356.135-2.715.157-4.073.023-1.674-.017-3.35.013-5.024.033-2.05-.484-3.946-1.555-5.688-2.55-4.151-5.11-8.3-7.679-12.442-.681-1.1-1.49-2.112-2.426-3.018-.884-.855-1.864-1.52-3.136-1.64-.242-.025-.478-.114-.459-.398.018-.273.264-.352.501-.357.411-.011.823-.017 1.23.005 2.161.113 4.322.15 6.485-.002.432-.03.866-.034 1.298.005zM17.7.022c.39-.013.504.342.645.618.146.28.259.579.374.873 1.078 2.788 2.15 5.578 3.234 8.363 2.636 6.775 5.27 13.55 7.926 20.315.353.905.798 1.777 1.238 2.645.214.421.5.809.774 1.198.83 1.178 1.996 1.743 3.418 1.838.248.015.504 0 .747.052.132.029.35.193.336.253-.032.151-.152.314-.284.4-.122.076-.307.08-.462.076-2.846-.04-5.692-.085-8.538-.135-.133-.003-.277-.02-.4-.068-.258-.102-.327-.412-.09-.526.795-.383.59-.965.367-1.557-1.398-3.684-2.799-7.365-4.201-11.047-.25-.657-.255-.657-.995-.66h-9.361c-.731.003-.763.023-.988.677-.96 2.806-1.928 5.608-2.864 8.422-.228.683-.38 1.399-.503 2.11-.227 1.302.333 1.955 1.685 2.025.205.012.423-.025.611.033.146.045.336.178.37.308.059.238-.145.353-.364.398-.066.017-.135.02-.202.023-.115.004-.229.011-.342.002-2.915-.212-5.825-.014-8.737 0-.272.002-.556.01-.812-.066-.127-.035-.26-.24-.282-.385-.012-.076.19-.251.318-.275.31-.056.631-.06.95-.07 1.464-.046 2.594-.695 3.313-1.943.449-.782.832-1.613 1.145-2.46 3.108-8.406 6.196-16.826 9.291-25.24.578-1.573 1.16-3.146 1.742-4.716.11-.297.224-.594.36-.88.124-.26.228-.59.58-.601zm118.698.33c.213.345.373.725.518 1.105 2.132 5.509 4.252 11.023 6.391 16.53 1.573 4.053 3.15 8.102 4.77 12.134.454 1.13 1.023 2.22 1.614 3.288.91 1.644 2.337 2.484 4.239 2.484.091 0 .196-.02.27.018.152.072.364.147.41.271.088.243-.132.362-.336.42-.15.043-.314.056-.471.054-2.774-.04-5.553-.084-8.328-.13-.115 0-.24.014-.338-.028-.155-.069-.289-.177-.43-.27.096-.134.166-.315.295-.393.386-.221.445-.552.37-.934-.039-.197-.113-.391-.183-.579-1.383-3.64-2.768-7.277-4.155-10.916-.265-.7-.284-.743-.939-.746h-9.487c-.663.003-.734.048-.939.653-.973 2.847-1.958 5.69-2.9 8.548-.24.727-.38 1.49-.501 2.248-.157.981.34 1.607 1.342 1.752.314.045.636.026.952.054.213.016.422.081.411.352-.01.246-.192.345-.413.373-.157.02-.317.025-.476.018-.91-.032-1.82-.094-2.728-.097-1.115-.004-2.228.041-3.342.061-.98.016-1.957.032-2.938.034-.223 0-.455-.032-.665-.102-.096-.034-.205-.201-.203-.304.005-.101.124-.247.225-.285.164-.064.356-.078.536-.072 2.145.076 3.55-.989 4.34-2.884.711-1.71 1.345-3.457 1.988-5.196 3.234-8.772 6.455-17.544 9.686-26.317.143-.382.29-.765.488-1.118.278-.495.636-.504.927-.026zM16.944 7.213c-.141.216-.24.315-.279.432-1.433 4.353-2.86 8.708-4.291 13.064.64.185 8.79.186 9.386.01-.04-.167-.067-.343-.125-.507-1.453-4.117-2.906-8.23-4.365-12.344-.07-.198-.186-.378-.326-.655zm118.186.093c-.073.09-.17.163-.202.257-1.45 4.376-2.892 8.754-4.357 13.2.204.042.292.075.378.075 2.89.004 5.781.005 8.67 0 .122 0 .248-.067.37-.103-.32-1.391-4.512-13.003-4.859-13.429zm82.303-5.447c1.419 0 2.567 1.143 2.567 2.552 0 1.41-1.148 2.552-2.567 2.552-1.417 0-2.567-1.142-2.567-2.552 0-1.409 1.15-2.552 2.567-2.552zm0 .408c-1.19 0-2.16.96-2.16 2.144 0 1.184.97 2.144 2.16 2.144 1.192 0 2.156-.96 2.156-2.144 0-1.184-.964-2.144-2.156-2.144zm-.03.721c.233 0 .427.03.583.089.295.111.443.316.443.615 0 .2-.066.354-.197.461-.13.107-.31.178-.535.213l.835 1.021c.051.063.103.109.154.138.052.028.118.046.198.054v.075h-.652l-1.014-1.241-.178.01v.794c0 .149.023.243.069.282.045.04.144.067.297.08v.075h-1.126v-.075c.157-.015.253-.045.291-.09.039-.045.058-.152.058-.32V3.426c0-.142-.021-.235-.065-.278-.043-.044-.137-.072-.284-.084v-.075h1.122zm-.113.154c-.115 0-.185.008-.211.024-.026.017-.039.055-.039.115v.992c.292-.01.5-.04.625-.09.215-.088.323-.253.323-.496 0-.232-.096-.391-.29-.476-.102-.046-.238-.07-.408-.07z">
 </path>
</svg>