<?xml version="1.0" encoding="utf-8"?>
<!-- Generator: Adobe Illustrator 25.2.0, SVG Export Plug-In . SVG Version: 6.00 Build 0)  -->
<svg version="1.1" id="Layer_1" xmlns="http://www.w3.org/2000/svg" xmlns:xlink="http://www.w3.org/1999/xlink" x="0px" y="0px"
	 viewBox="0 0 203.6 63" style="enable-background:new 0 0 203.6 63;" xml:space="preserve">
<style type="text/css">
	.st0{fill:#FFFFFF;}
	.st1{fill:none;stroke:#FFFFFF;stroke-width:0.5;stroke-miterlimit:10;}
</style>
<polygon class="st0" points="10.8,62.7 11.7,62.7 11.7,59.6 14.7,59.6 14.7,58.7 11.7,58.7 11.7,56.3 15.1,56.3 15.1,55.4 
	10.8,55.4 "/>
<path class="st0" d="M26.9,60.1c0,0.3-0.1,0.6-0.2,0.9c-0.2,0.3-0.4,0.5-0.6,0.6c-0.3,0.1-0.6,0.2-0.9,0.2c-0.3,0-0.6-0.1-0.9-0.2
	c-0.3-0.1-0.5-0.4-0.6-0.6c-0.2-0.3-0.2-0.6-0.2-0.9v-4.7h-1v4.8c0,0.5,0.1,1,0.4,1.4c0.2,0.4,0.6,0.7,1,0.9c0.9,0.4,1.9,0.4,2.8,0
	c0.4-0.2,0.8-0.5,1-0.9c0.2-0.4,0.4-0.9,0.4-1.4v-4.8h-1L26.9,60.1L26.9,60.1z"/>
<polygon class="st0" points="41,60.7 35.6,55.2 35.5,55.2 35.5,62.7 36.5,62.7 36.5,57.5 41.9,63 41.9,63 41.9,55.4 40.9,55.4 "/>
<path class="st0" d="M54,55.9c-0.7-0.4-1.5-0.6-2.3-0.5h-2v7.3h2.3c0.6,0,1.2-0.1,1.8-0.4c0.5-0.3,1-0.7,1.3-1.2
	c0.3-0.6,0.5-1.2,0.5-1.9c0-0.6-0.1-1.2-0.4-1.8C55,56.8,54.6,56.3,54,55.9z M54.3,60.5c-0.2,0.4-0.6,0.7-1,0.9
	c-0.5,0.2-0.9,0.3-1.4,0.3h-1.2v-5.4H52c0.5,0,0.9,0.1,1.3,0.3c0.4,0.2,0.8,0.5,1,0.9C54.8,58.5,54.8,59.6,54.3,60.5z"/>
<polygon class="st0" points="75.6,60.3 72,55.2 72,55.2 72,62.7 72.9,62.7 72.9,58.1 75.6,61.8 75.6,61.8 78.3,58 78.3,62.7 
	79.2,62.7 79.2,55.2 79.2,55.2 "/>
<path class="st0" d="M89.5,55.1l-3.2,7.6h1l0.8-1.9h2.8l0.8,1.9h1.1L89.5,55.1L89.5,55.1z M88.5,59.9l1.1-2.7l1,2.7H88.5L88.5,59.9z
	"/>
<polygon class="st0" points="105.3,60.7 99.9,55.2 99.9,55.2 99.9,62.7 100.9,62.7 100.8,57.5 106.2,63 106.2,63 106.2,55.4 
	105.3,55.4 "/>
<path class="st0" d="M116.5,55.1l-3.2,7.6h1l0.8-1.9h2.8l0.8,1.9h1.1L116.5,55.1L116.5,55.1L116.5,55.1z M115.4,59.9l1.1-2.7l1,2.7
	H115.4L115.4,59.9z"/>
<path class="st0" d="M129.9,60.1h1.5v1.4c-0.2,0.1-0.4,0.2-0.6,0.2c-0.2,0.1-0.5,0.1-0.8,0.1c-0.5,0-1-0.1-1.5-0.3
	c-0.4-0.2-0.8-0.6-1-1c-0.2-0.4-0.4-0.9-0.4-1.4c0-0.5,0.1-1,0.4-1.5c0.2-0.4,0.6-0.8,1-1c0.5-0.2,1-0.4,1.5-0.3
	c0.3,0,0.6,0.1,0.9,0.1c0.3,0.1,0.6,0.2,0.8,0.3l0.3-0.9c-0.3-0.2-0.7-0.3-1-0.4c-0.4-0.1-0.8-0.2-1.2-0.2c-0.7,0-1.3,0.2-1.9,0.5
	c-0.6,0.3-1,0.8-1.4,1.3c-0.4,0.6-0.5,1.3-0.5,2.1c0,0.6,0.2,1.3,0.5,1.8c0.3,0.5,0.8,1,1.3,1.3c0.6,0.3,1.3,0.5,2,0.5
	c0.4,0,0.9-0.1,1.3-0.2c0.4-0.1,0.7-0.3,1-0.5v-3h-2.4L129.9,60.1L129.9,60.1z"/>
<polygon class="st0" points="140.9,59.5 144.2,59.5 144.2,58.6 140.9,58.6 140.9,56.3 144.7,56.3 144.7,55.4 139.9,55.4 139.9,62.7 
	144.8,62.7 144.8,61.8 140.9,61.8 "/>
<polygon class="st0" points="155.8,60.3 152.2,55.2 152.2,55.2 152.2,62.7 153.2,62.7 153.2,58.1 155.8,61.8 155.8,61.8 158.5,58 
	158.5,62.7 159.5,62.7 159.5,55.2 159.5,55.2 "/>
<polygon class="st0" points="168.3,59.5 171.6,59.5 171.6,58.6 168.3,58.6 168.3,56.3 172.1,56.3 172.1,55.4 167.3,55.4 167.3,62.7 
	172.2,62.7 172.2,61.8 168.3,61.8 "/>
<polygon class="st0" points="185,60.7 179.7,55.2 179.6,55.2 179.6,62.7 180.6,62.7 180.6,57.5 186,63 186,63 186,55.4 185,55.4 "/>
<polygon class="st0" points="193.3,56.3 195.2,56.3 195.2,62.7 196.2,62.7 196.2,56.3 198.1,56.3 198.1,55.4 193.3,55.4 "/>
<path class="st0" d="M9.9,28.7c0.2,0.6,0.5,1.3,0.7,1.9c0.6-0.5,1.3-0.8,2.1-0.8h0.1c0.4,0,0.7,0.1,1.1,0.2L8.6,16.4l-2.2-6
	c-0.1-0.2-0.1-0.3-0.1-0.5c0-0.2,0.1-0.4,0.3-0.5c0.4-0.1,0.7-0.2,1.1-0.2h1.7v-1C7.5,8.3,5.9,8.3,4.6,8.3S1.7,8.3,0,8.2v1.1h0.7
	c0.5-0.1,1,0,1.5,0.3c0.6,1.2,1.1,2.4,1.5,3.6L9.9,28.7z"/>
<path class="st0" d="M33.5,8.2h-1.9v1.1L33,9.4c0.5,0,1,0.1,1.5,0.3c0.2,0.1,0.3,0.3,0.4,0.4c0.1,0.6,0.2,1.2,0.2,1.8
	c0.1,1,0.1,2.3,0.1,3.8v9.5c0,2.5,0,4.1-0.1,4.8c0,0.5-0.2,1-0.5,1.4c-0.6,0.3-1.2,0.4-1.9,0.3h-0.5v1.1c2.2-0.1,4-0.1,5.3-0.1
	c1.3,0,3.5,0,6.6,0.1l2.7,0c1.3,0,2.6-0.1,3.9-0.2v-0.8c0-0.8,0.2-2.5,0.5-5H50c-0.3,1.5-0.6,2.8-0.9,3.8c-0.6,0.2-1.2,0.4-1.8,0.5
	c-1.1,0.1-2.2,0.2-3.2,0.2c-1.9,0-3.7-0.1-5.4-0.2c0-0.7,0-1.8,0-3.3v-2.4V21c1-0.1,2-0.1,3-0.1c2.6,0,4.1,0.1,4.6,0.4
	s0.7,0.9,0.7,2v1H48c-0.1-1.5-0.1-2.8-0.1-3.9s0-2.5,0.1-4.1h-1.2v1.1c0,1-0.2,1.6-0.5,1.8c-1.5,0.3-3.1,0.4-4.6,0.3
	c-0.9,0-1.9,0-3-0.1v-3.5v-2.6c0-1.1,0-2.2,0-3.2c1.7-0.1,3.4-0.2,4.9-0.2c1.7,0,3.4,0.2,5,0.8c0.2,1,0.2,2.1,0.2,3.1H50
	c0-1.8,0.2-3.6,0.7-5.3c-1.1-0.1-2.2-0.1-3.2-0.1h-3.1l-6.6,0.1c-0.5,0-1.3,0-2.3-0.1L33.5,8.2z"/>
<path class="st0" d="M67.7,32.7v-1.1h-1.3c-1.1,0-1.7-0.2-1.9-0.7c-0.2-0.4-0.3-2.7-0.3-6.7v-8.3c0-2.1,0.1-4,0.2-5.9
	c1.2-0.4,2.4-0.7,3.7-0.7c1.4-0.1,2.9,0.3,4,1.2c0.9,0.9,1.5,2.2,1.4,3.5c0.1,1.5-0.5,3-1.6,4c-1.3,1-2.9,1.6-4.5,1.5
	c-0.3,0-0.8,0-1.5-0.1l-0.2,0.6c1.3,1.4,2.5,2.9,3.7,4.4l6.1,8.2c0.7-0.1,1.3-0.1,2-0.1c0.7,0,1.5,0,2.5,0.1v-1.1h-0.4
	c-0.2,0-0.4-0.1-0.6-0.2c-0.4-0.4-0.8-0.8-1.2-1.3l-3.3-4.3c-1.7-2.1-3.1-4-4.2-5.7c1.9-0.3,3.7-1.2,5.1-2.5
	c1.1-1.1,1.8-2.7,1.8-4.3c0.1-2.1-1.2-4-3.1-4.7c-1.5-0.5-3-0.7-4.5-0.6c-0.7,0-1.9,0-3.6,0.1c-1.4,0.1-2.5,0.1-3.3,0.1
	c-1.1,0-2.8,0-4.9-0.1v1.1h0.9c1.2,0,1.9,0.2,2.1,0.6s0.3,2.4,0.3,6v8.3c0,4.1-0.1,6.4-0.3,6.8c-0.2,0.4-0.8,0.6-1.8,0.6h-1.3v1.1
	c2.6-0.1,4.4-0.1,5.4-0.1C64.2,32.6,65.8,32.6,67.7,32.7z"/>
<path class="st0" d="M95.3,32.7v-1.1h-1.1c-1.1,0-1.7-0.2-1.9-0.7C92.1,30.5,92,28,92,23.6v-6c0-3.1,0-5.3,0.1-6.6
	c0-0.5,0.1-1,0.4-1.5c0.5-0.3,1-0.4,1.5-0.3h1.3V8.2c-1.3,0.1-2.7,0.1-4.2,0.1c-1.9,0-3.8,0-5.7-0.1v1.1h1.4
	c0.6-0.1,1.3,0.2,1.7,0.7c0.2,0.5,0.3,3,0.3,7.6v5.8c0,4.4-0.1,6.9-0.3,7.4s-0.9,0.8-1.9,0.8h-1.1v1.1c1.6-0.1,3.3-0.1,5.3-0.1
	C92.3,32.6,93.9,32.6,95.3,32.7z"/>
<path class="st0" d="M101.2,13.8h1.1l0.2-2.3c0-0.6,0.2-1.1,0.6-1.5c1.5-0.2,3.1-0.3,4.7-0.2h1.7c0.1,1.6,0.1,3.4,0.1,5.3v9.8
	c0,2.1-0.1,3.9-0.2,5.2c0,0.4-0.1,0.9-0.4,1.2c-0.4,0.3-1,0.4-1.5,0.3h-1.4v1.1c2-0.1,3.7-0.1,5.1-0.1s3.1,0,5.2,0.1v-1.1h-1.3
	c-1.1,0-1.8-0.2-2-0.6c-0.2-0.4-0.3-2.4-0.3-6v-9.8c0-1.9,0.1-3.7,0.2-5.4h1.3c1.6,0,3,0,4.3,0.1c0.3,0,0.6,0.1,0.8,0.3
	c0.2,0.4,0.3,0.9,0.3,1.4l0.2,2.3h1.1c0-1.8,0.2-3.7,0.4-5.6L112,8.3c-1.1,0-4.7,0-10.9-0.1c0.1,1.6,0.2,2.7,0.2,3.6L101.2,13.8z"/>
<path class="st0" d="M137.2,32.7v-1.1h-1.1c-1.1,0-1.7-0.2-1.9-0.7c-0.2-0.5-0.3-2.9-0.3-7.3v-6c0-3.1,0-5.3,0.1-6.6
	c0-0.5,0.1-1,0.4-1.5c0.5-0.3,1-0.4,1.5-0.3h1.3V8.2c-1.3,0.1-2.7,0.1-4.2,0.1c-1.9,0-3.8,0-5.7-0.1v1.1h1.4
	c0.6-0.1,1.3,0.2,1.6,0.7c0.2,0.5,0.3,3,0.3,7.6v5.8c0,4.4-0.1,6.9-0.3,7.4s-0.9,0.8-1.9,0.8h-1.1v1.1c1.6-0.1,3.3-0.1,5.3-0.1
	C134.3,32.6,135.8,32.6,137.2,32.7z"/>
<path class="st0" d="M148.4,31.5c2,1.1,4.2,1.6,6.4,1.5c3.7,0.1,7.3-1.3,9.9-3.9c2.6-2.5,4-6,3.9-9.6c0.1-3.2-1.1-6.3-3.4-8.5
	c-2.3-2.1-5.4-3.2-9.4-3.2c-4,0-7.2,1.2-9.7,3.5c-2.5,2.4-3.8,5.7-3.6,9.1c0,2.3,0.5,4.6,1.6,6.7C145.1,29,146.5,30.5,148.4,31.5z
	 M147.1,13.9c0.7-1.4,1.8-2.6,3.1-3.4c1.4-0.8,3.1-1.2,4.7-1.2c1.8-0.1,3.7,0.4,5.3,1.3c1.5,0.9,2.7,2.3,3.5,3.9
	c0.9,2,1.3,4.1,1.3,6.3c0.1,2-0.3,4-1.1,5.9c-0.7,1.5-1.8,2.8-3.1,3.7c-1.4,0.9-3,1.3-4.7,1.3c-1.8,0-3.6-0.5-5.1-1.4
	c-1.6-1.1-2.8-2.6-3.6-4.3c-0.9-2.1-1.4-4.5-1.3-6.8C146,17.3,146.4,15.5,147.1,13.9z"/>
<path class="st0" d="M181.3,32.7v-1.1l-1.1-0.1c-0.6,0-1.1-0.1-1.6-0.4c-0.3-0.4-0.4-1-0.4-1.5c-0.1-1.1-0.2-3-0.2-5.7V12.1
	l12.4,15.3c1.4,1.7,2.7,3.3,4,4.7c0.2,0.2,0.4,0.4,0.7,0.5c0.9,0.2,1.8,0.4,2.7,0.5c-0.2-2.9-0.3-5.4-0.3-7.5v-7.8
	c0-4.6,0.1-7.1,0.2-7.5c0.2-0.7,0.8-1.1,1.8-1.1h1.3V8.2c-1.7,0.1-3.1,0.1-4.1,0.1c-1.1,0-2.5,0-4.3-0.1v1.1l1.3,0.1
	c1.2,0.1,1.8,0.4,2,0.8c0.3,2.5,0.4,5.1,0.2,7.6v11c-0.9-1-2.5-2.8-4.6-5.4l-5.9-7.2c-1.1-1.3-2.1-2.7-3.1-4c-1-1.3-2.1-2.7-3.2-4.1
	c-1,0.1-1.9,0.1-2.7,0.1s-1.9,0-3.3-0.1v1.1h1.1c0.4,0,0.9,0.1,1.3,0.3c0.3,0.2,0.5,0.4,0.7,0.7c0.2,0.4,0.3,0.9,0.3,1.4
	c0,1.6,0.1,3.2,0.1,4.8v8.6c0,2.2-0.1,3.9-0.2,5.2c0,0.4-0.1,0.9-0.4,1.2c-0.4,0.3-1,0.4-1.5,0.3H173v1.1c2.5-0.1,4.1-0.1,4.8-0.1
	C178.9,32.6,180,32.6,181.3,32.7z"/>
<path class="st0" d="M32.5,0H32c-3.6,0-6,3.2-7.5,6.3c-0.5,1-0.9,2-1.2,2.9c-0.6,1.4-1.1,2.9-1.5,4.4s-0.8,3-1.2,4.5l-0.6,2.3
	c-0.4,1.5-0.8,3-1.2,4.5c-0.2,0.7-0.4,1.5-0.7,2.2c-0.2,0.5-0.3,1.1-0.5,1.6l-0.1,0.5v0.1v0.1c-0.2,0.7-0.5,1.5-0.8,2.2
	c-0.1,0.2-0.2,0.4-0.3,0.6l-0.1,0.1c-0.1,0.2-0.2,0.4-0.3,0.6v0.1c-0.1,0.2-0.2,0.3-0.3,0.4l-0.1,0.1c-0.1,0.1-0.2,0.3-0.3,0.4l0,0
	l0,0c-0.1,0.1-0.3,0.2-0.5,0.3c0.2-0.3,0.3-0.7,0.3-1c0,0,0-0.1,0-0.1s0-0.1,0-0.1c-0.1-0.1-0.1-0.2-0.2-0.3
	c-0.3-0.9-1.1-1.6-2.1-1.6h-0.1c-0.7,0-1.3,0.4-1.6,0.9c-0.3,0.4-0.4,0.8-0.5,1.3c0,1,0.6,1.9,1.6,2.3c0.2,0.1,0.5,0.2,0.7,0.2h0.3
	h0.1h0.4c0.6,0,1.1-0.1,1.6-0.2c0.6-0.2,1.2-0.5,1.7-0.8c0.7-0.5,1.4-1.1,2-1.8c0.4-0.5,0.8-1,1.2-1.6c0.2-0.3,0.4-0.6,0.6-0.9
	s0.4-0.8,0.6-1.1c0.4-0.8,0.8-1.7,1.1-2.6c0.9-2.7,1.7-5.5,2.4-8.3s1.5-5.6,2.3-8.3c0.1-0.5,0.3-1,0.4-1.4c0.2-0.7,0.4-1.5,0.7-2.2
	c0.2-0.7,0.5-1.4,0.8-2.1c0.3-0.8,0.8-1.6,1.4-2.3c0.2-0.2,0.3-0.3,0.5-0.4l0,0c-0.1,0.2-0.2,0.3-0.2,0.5c0,0.2-0.1,0.4-0.1,0.6
	c0,1.2,1,2.1,2.2,2.1H33c0.7,0,1.3-0.4,1.7-1C34.9,3.5,34.9,3.3,35,3c0-0.1,0.1-0.3,0.1-0.4C35,1.1,33.9,0.1,32.5,0z"/>
<line class="st1" x1="2.6" y1="45.1" x2="203.6" y2="45.1"/>
</svg>
